<svg width="370" height="170" viewBox="0 0 370 170" fill="none" xmlns="http://www.w3.org/2000/svg">
    <g clip-path="url(#clip0_838_55615)">
        <path d="M164.801 135.473H153.409C153.209 135.473 153.163 135.404 153.133 135.328V129.781H164.801V135.473ZM169.197 127.088H148.752V135.381C148.867 136.865 149.987 138.051 151.475 138.151H169.197V127.088ZM113.317 135.917C114.782 134.31 115.626 131.931 115.634 128.687V110.356H110.601V128.679C110.601 130.638 110.141 131.954 109.397 132.78C108.66 133.591 107.671 133.889 106.673 133.897H106.62C104.633 133.897 103.068 133.071 101.779 131.556L99.0094 134.57C100.712 136.689 103.183 138.418 106.926 138.418C109.627 138.418 111.836 137.562 113.325 135.917M135.488 130.202C135.488 132.673 133.746 134.387 131.767 134.792C131.169 134.922 130.685 134.945 130.44 134.945C130.194 134.945 125.837 134.945 125.837 134.945V125.443C125.837 125.443 130.44 125.443 130.448 125.443C131.054 125.443 131.767 125.596 131.775 125.596C133.754 126.025 135.473 127.968 135.488 130.171V130.209V130.202ZM133.225 117.915C133.202 120.256 131.192 122.444 129.051 122.452C129.021 122.452 125.845 122.467 125.845 122.467V113.271C125.845 113.271 126.412 113.233 127.049 113.233C127.747 113.233 128.691 113.263 129.611 113.401C131.43 113.684 133.202 115.689 133.225 117.831V117.907V117.915ZM140.797 130.546V130.5C140.797 127.134 138.372 124.602 134.843 123.515L134.199 123.316L134.797 122.98C136.869 121.786 137.966 120.042 137.973 117.647V117.555C137.973 115.781 137.268 113.975 135.772 112.621C134.291 111.282 132.051 110.395 129.005 110.372H121.004V138.028H130.379C133.977 138.028 136.585 137.041 138.296 135.595C139.991 134.165 140.789 132.298 140.804 130.561M144.763 124.104H174.183V121.419H168.821V110.28H148.476L149.473 112.957H164.433V121.419H143.789L144.763 124.104ZM195.917 114.572C195.917 116.285 194.268 117.693 192.212 117.693C190.156 117.693 188.506 116.278 188.506 114.572C188.506 112.858 190.156 111.45 192.212 111.45C194.268 111.45 195.917 112.866 195.917 114.572ZM199.975 114.572C199.975 111.206 196.485 108.513 192.212 108.505C187.939 108.505 184.448 111.198 184.448 114.572C184.448 117.938 187.946 120.631 192.212 120.631C196.485 120.631 199.975 117.938 199.975 114.572ZM196.071 132.688C196.071 134.478 194.352 135.947 192.204 135.947C190.056 135.947 188.345 134.478 188.338 132.688C188.338 130.898 190.056 129.429 192.204 129.429C194.352 129.429 196.063 130.898 196.071 132.688ZM195.296 126.858C194.344 126.552 193.301 126.376 192.212 126.376C191.122 126.376 190.079 126.545 189.128 126.858V124.104H195.296V126.858ZM198.832 124.104H207.033V121.434H177.406L178.38 124.104H185.583V129.077C184.671 130.095 184.126 131.342 184.126 132.688C184.126 136.192 187.762 138.992 192.212 139C196.661 139 200.29 136.192 200.298 132.688C200.298 131.342 199.753 130.102 198.84 129.077V124.104H198.832ZM221.187 120.172C221.088 119.774 221.057 118.55 221.057 117.196C221.057 115.849 221.088 114.358 221.118 113.363H227.401V110.655H210.01L211.015 113.363H216.983C217.006 114.358 217.045 115.849 217.045 117.196C217.045 118.55 217.014 119.766 216.914 120.164C216.224 123.064 214.298 125.061 212.549 126.338C210.792 127.608 209.112 128.197 209.112 128.197L210.255 130.485L210.332 130.469C216.04 129.284 218.479 125.566 219.055 124.525C219.638 125.566 222.07 129.284 227.777 130.469L227.854 130.485L229.005 128.197C229.005 128.197 227.317 127.616 225.568 126.338C223.811 125.061 221.893 123.064 221.203 120.164M231.659 138.143H236.055V109.607H231.659V138.143ZM266.197 122.865L267.34 120.585L267.217 120.554C267.217 120.554 265.146 120.072 262.829 118.848C260.55 117.647 258.057 115.727 257.083 112.873H265.966V110.196H243.665L244.67 112.873H252.603C251.628 115.727 249.135 117.647 246.857 118.848C244.547 120.072 242.476 120.554 242.468 120.554L242.346 120.585L243.489 122.865H243.558C249.787 122.452 253.953 117.946 254.843 116.897C255.733 117.946 259.898 122.452 266.128 122.865H266.197ZM270.002 128.519V125.604H239.653L240.658 128.519H252.687V138.143H257.106V128.519H270.002Z" fill="#021D49"/>
        <path d="M152.986 31.9999V94.8488H216.008V94.7799L200.251 79.1347L211.943 67.4829L216.008 71.3541V31.9999H152.986Z" fill="#0091D0"/>
        <path d="M152.986 31.9999V63.4205L168.744 47.714L152.986 31.9999Z" fill="#009CD8"/>
        <path d="M152.986 31.9999L168.744 47.714L184.501 31.9999H152.986Z" fill="#0091D0"/>
        <path d="M152.986 63.4205H184.501L168.744 47.714L152.986 63.4205Z" fill="#0091D0"/>
        <path d="M184.501 31.9999L168.743 47.714L184.501 63.4205V31.9999Z" fill="#0082C9"/>
        <path d="M184.5 31.9999V63.4205L200.25 47.714L184.5 31.9999Z" fill="#0070BB"/>
        <path d="M184.5 31.9999L200.25 47.714L216.007 31.9999H184.5Z" fill="#0060AF"/>
        <path d="M184.5 63.4205H216.007L200.257 47.714L184.5 63.4205Z" fill="#004C98"/>
        <path d="M216.006 31.9999L200.257 47.714L216.006 63.4205V31.9999Z" fill="#00529C"/>
        <path d="M152.986 63.4204V94.8487L168.744 79.1346L152.986 63.4204Z" fill="#0070BB"/>
        <path d="M184.501 63.4204H152.986L168.744 79.1346L184.501 63.4204Z" fill="#0082C9"/>
        <path d="M152.986 94.8487H184.501L168.744 79.1345L152.986 94.8487Z" fill="#0060AF"/>
        <path d="M168.743 79.1346L184.501 94.8487V63.4204L168.743 79.1346Z" fill="#00529C"/>
        <path d="M184.5 63.4204V94.8487L200.257 79.1346L184.5 63.4204Z" fill="#004C98"/>
        <path d="M216.007 63.4204H184.5L200.257 79.1346L216.007 63.4204Z" fill="#1C378A"/>
        <path d="M216.007 63.4204L211.941 67.4828L216.007 71.354V63.4204Z" fill="#1C378A"/>
        <path d="M184.5 94.8487H216.007V94.7798L200.257 79.1345L184.5 94.8487Z" fill="#1C378A"/>
        <path d="M216.007 63.4204H184.5L200.257 79.1346L216.007 63.4204Z" fill="#1C378A"/>
        <path d="M216.007 63.4204L211.941 67.4828L216.007 71.354V63.4204Z" fill="#1C378A"/>
        <path d="M184.5 94.8487H216.007V94.7798L200.257 79.1345L184.5 94.8487Z" fill="#1C378A"/>
        <path d="M216.008 94.7798L200.258 79.1345L195.893 74.7814L176.384 93.9382L165.138 82.7302L195.817 52.1359L216.008 71.3539V94.7798Z" fill="white"/>
    </g>
    <defs>
        <clipPath id="clip0_838_55615">
            <rect width="171" height="107" fill="white" transform="translate(99 32)"/>
        </clipPath>
    </defs>
</svg>
