<svg width="370" height="170" viewBox="0 0 370 170" fill="none" xmlns="http://www.w3.org/2000/svg">
    <!-- 다크 인트로용 화이트 음각: 면 화이트 + 화살표 마스크 투명 -->
    <defs>
        <clipPath id="clip0_838_55641">
            <rect width="237.821" height="36" fill="white" transform="translate(66 67)"/>
        </clipPath>
    <mask id="jbArrow1" maskUnits="userSpaceOnUse"><rect x="64.0" y="65.0" width="39.7" height="39.7" fill="#ffffff"/><path d="M101.75 102.713L92.8198 93.8173L90.3392 91.3366L79.2763 102.234L72.8962 95.854L90.2957 78.4546L101.75 89.3869V102.713Z" fill="#000000"/></mask></defs>
    <g clip-path="url(#clip0_838_55641)">
        <path d="M184.463 98.987H171.538C171.311 98.987 171.259 98.9087 171.224 98.8216V92.5112H184.463V98.987ZM189.442 89.4473H166.245V98.8825C166.376 100.571 167.647 101.92 169.335 102.033H189.442V89.4473ZM126.05 99.4918C127.713 97.664 128.67 94.957 128.679 91.2665V70.4029H122.969V91.2491C122.969 93.4773 122.447 94.9744 121.602 95.9145C120.767 96.8371 119.644 97.1765 118.512 97.1853H118.451C116.197 97.1853 114.421 96.2452 112.959 94.5218L109.817 97.9512C111.749 100.362 114.552 102.329 118.8 102.329C121.863 102.329 124.37 101.354 126.059 99.4831M151.205 92.9899C151.205 95.8013 149.229 97.751 146.983 98.2123C146.304 98.3603 145.756 98.3864 145.478 98.3864C145.199 98.3864 140.255 98.3864 140.255 98.3864V87.576C140.255 87.576 145.478 87.576 145.486 87.576C146.174 87.576 146.983 87.75 146.992 87.75C149.238 88.2375 151.187 90.4483 151.205 92.9551V92.9986V92.9899ZM148.637 79.0112C148.611 81.6746 146.331 84.164 143.902 84.1727C143.867 84.1727 140.264 84.1901 140.264 84.1901V73.7278C140.264 73.7278 140.908 73.6843 141.63 73.6843C142.422 73.6843 143.493 73.7191 144.538 73.8758C146.6 74.1978 148.611 76.4783 148.637 78.9154V79.0025V79.0112ZM157.228 93.3816V93.3294C157.228 89.4996 154.478 86.6185 150.474 85.3825L149.743 85.1562L150.421 84.7733C152.772 83.4154 154.016 81.4309 154.025 78.7065V78.6021C154.025 76.5827 153.224 74.5286 151.527 72.988C149.847 71.4648 147.305 70.4551 143.85 70.429H134.772V101.894H145.408C149.49 101.894 152.45 100.771 154.391 99.1263C156.314 97.4986 157.219 95.3748 157.237 93.399M161.719 86.0528H195.099V82.9976H189.015V70.3245H165.932L167.064 73.3709H184.037V82.9976H160.614L161.719 86.0528ZM219.758 75.2075C219.758 77.1572 217.887 78.7588 215.554 78.7588C213.221 78.7588 211.35 77.1485 211.35 75.2075C211.35 73.2578 213.221 71.6562 215.554 71.6562C217.887 71.6562 219.758 73.2665 219.758 75.2075ZM224.371 75.2075C224.371 71.3777 220.411 68.3139 215.563 68.3052C210.715 68.3052 206.754 71.369 206.754 75.2075C206.754 79.0373 210.723 82.1011 215.563 82.1011C220.411 82.1011 224.371 79.0373 224.371 75.2075ZM219.941 95.8187C219.941 97.8555 217.991 99.5266 215.554 99.5266C213.117 99.5266 211.176 97.8555 211.167 95.8187C211.167 93.782 213.117 92.1108 215.554 92.1108C217.991 92.1108 219.932 93.782 219.941 95.8187ZM219.053 89.1862C217.974 88.8381 216.79 88.6379 215.554 88.6379C214.318 88.6379 213.134 88.8294 212.055 89.1862V86.0528H219.053V89.1862ZM223.074 86.0528H232.379V83.015H198.764L199.869 86.0528H208.042V91.7104C207.007 92.868 206.389 94.2868 206.389 95.8187C206.389 99.8052 210.514 102.991 215.563 103C220.611 103 224.728 99.8052 224.737 95.8187C224.737 94.2868 224.119 92.8767 223.083 91.7104V86.0528H223.074ZM248.438 81.5789C248.325 81.1263 248.29 79.7336 248.29 78.193C248.29 76.6611 248.325 74.9638 248.36 73.8323H255.488V70.751H235.756L236.896 73.8323H243.668C243.694 74.9638 243.738 76.6611 243.738 78.193C243.738 79.7336 243.703 81.1176 243.59 81.5702C242.806 84.869 240.622 87.1408 238.637 88.5943C236.644 90.0392 234.738 90.7094 234.738 90.7094L236.035 93.3119L236.122 93.2945C242.597 91.9454 245.365 87.7152 246.018 86.5315C246.68 87.7152 249.439 91.9454 255.915 93.2945L256.002 93.3119L257.307 90.7094C257.307 90.7094 255.392 90.0479 253.408 88.5943C251.415 87.1408 249.239 84.869 248.455 81.5702M260.319 102.025H265.306V69.5586H260.319V102.025ZM299.505 84.6427L300.802 82.0489L300.662 82.0141C300.662 82.0141 298.312 81.4657 295.684 80.0731C293.098 78.7065 290.27 76.5218 289.164 73.2752H299.244V70.2288H273.941L275.081 73.2752H284.081C282.976 76.5218 280.147 78.7065 277.562 80.0731C274.942 81.4657 272.592 82.0141 272.583 82.0141L272.444 82.0489L273.741 84.6427H273.819C280.887 84.1727 285.613 79.046 286.623 77.8535C287.632 79.046 292.359 84.1727 299.426 84.6427H299.505ZM303.822 91.075V87.7588H269.389L270.529 91.075H284.177V102.025H289.19V91.075H303.822Z" fill="#ffffff"/>
        <g mask="url(#jbArrow1)">
        <path d="M66.0007 66.9998V102.747H101.748V102.713L92.8179 93.817L99.4417 87.1845L101.748 89.3866V66.9998H66.0007Z" fill="#ffffff"/>
        <path d="M66.0007 66.9998V84.8779L74.9398 75.9388L66.0007 66.9998Z" fill="#ffffff"/>
        <path d="M66.0007 66.9998L74.9398 75.9388L83.8789 66.9998H66.0007Z" fill="#ffffff"/>
        <path d="M66.0007 84.8778H83.8789L74.9398 75.9387L66.0007 84.8778Z" fill="#ffffff"/>
        <path d="M83.8789 66.9998L74.9398 75.9388L83.8789 84.8779V66.9998Z" fill="#ffffff"/>
        <path d="M83.8783 66.9998V84.8779L92.8174 75.9388L83.8783 66.9998Z" fill="#ffffff"/>
        <path d="M83.8783 66.9998L92.8174 75.9388L101.748 66.9998H83.8783Z" fill="#ffffff"/>
        <path d="M83.8783 84.878H101.748L92.8174 75.939L83.8783 84.878Z" fill="#ffffff"/>
        <path d="M101.747 66.9998L92.8169 75.9388L101.747 84.8779V66.9998Z" fill="#ffffff"/>
        <path d="M66.0007 84.8779V102.747L74.9398 93.817L66.0007 84.8779Z" fill="#ffffff"/>
        <path d="M83.8789 84.8779H66.0007L74.9398 93.817L83.8789 84.8779Z" fill="#ffffff"/>
        <path d="M66.0007 102.747H83.8789L74.9398 93.8169L66.0007 102.747Z" fill="#ffffff"/>
        <path d="M74.9398 93.817L83.8789 102.747V84.8779L74.9398 93.817Z" fill="#ffffff"/>
        <path d="M83.8783 84.8779V102.747L92.8174 93.817L83.8783 84.8779Z" fill="#ffffff"/>
        <path d="M101.748 84.8779H83.8783L92.8174 93.817L101.748 84.8779Z" fill="#ffffff"/>
        <path d="M101.75 84.8779L99.4436 87.1845L101.75 89.3866V84.8779Z" fill="#ffffff"/>
        <path d="M83.8783 102.748H101.748V102.713L92.8174 93.8171L83.8783 102.748Z" fill="#ffffff"/>
        <path d="M101.748 84.8779H83.8783L92.8174 93.817L101.748 84.8779Z" fill="#ffffff"/>
        <path d="M101.75 84.8779L99.4436 87.1845L101.75 89.3866V84.8779Z" fill="#ffffff"/>
        <path d="M83.8783 102.748H101.748V102.713L92.8174 93.8171L83.8783 102.748Z" fill="#ffffff"/>
        </g>
    </g>
</svg>