<svg width="370" height="170" viewBox="0 0 370 170" fill="none" xmlns="http://www.w3.org/2000/svg">
    <g clip-path="url(#clip0_838_55934)">
        <path d="M209.949 74.5074V93.0846C209.949 93.5524 210.219 93.7863 210.65 93.7863H214.1C214.522 93.7863 214.755 93.5524 214.755 93.0846V74.5434C214.755 74.0756 214.558 73.8057 214.1 73.8057H210.65C210.147 73.8057 209.949 74.0756 209.949 74.5074ZM114.863 74.5074V93.0846C114.863 93.5524 115.133 93.7863 115.564 93.7863H119.013C119.436 93.7863 119.669 93.5524 119.669 93.0846V74.5434C119.669 74.0756 119.472 73.8057 119.013 73.8057H115.564C115.061 73.8057 114.863 74.0756 114.863 74.5074ZM60.2011 92.095C61.7103 90.5387 62.5816 88.2266 62.5816 85.078V66.6717H57.3984V84.997V85.069C57.3984 86.9672 56.9223 88.2446 56.1497 89.0453C55.3862 89.837 54.3711 90.1158 53.347 90.1248H53.2931C51.245 90.1248 49.637 89.3242 48.3075 87.8488L45.4598 90.7726C47.2115 92.8237 49.7627 94.506 53.6075 94.506C56.3923 94.506 58.665 93.6783 60.2011 92.086M82.3714 85.9326C82.3714 88.3256 80.5748 89.9899 78.5356 90.3857C77.9248 90.5117 77.4217 90.5297 77.1702 90.5297C76.9187 90.5297 72.4271 90.5297 72.4271 90.5297V81.3176C72.4271 81.3176 77.1702 81.3176 77.1792 81.3176C77.808 81.3176 78.5356 81.4705 78.5446 81.4705C80.5838 81.8843 82.3534 83.7735 82.3714 85.9056V85.9416V85.9326ZM80.0358 74.0036C80.0089 76.2707 77.9427 78.3938 75.7329 78.4028C75.697 78.4028 72.4271 78.4208 72.4271 78.4208V69.5055C72.4271 69.5055 73.011 69.4695 73.6668 69.4695C74.3854 69.4695 75.3646 69.4965 76.3078 69.6315C78.1853 69.9014 80.0089 71.8535 80.0268 73.9317V74.0036H80.0358ZM87.8331 86.2565V86.2115C87.8331 82.9459 85.3358 80.4899 81.6977 79.4373L81.0329 79.2394L81.6438 78.9156C83.7818 77.7551 84.9046 76.0638 84.9136 73.7427V73.6528C84.9136 71.9345 84.186 70.1802 82.6409 68.8668C81.1138 67.5713 78.8051 66.7077 75.679 66.6807H67.4325V93.5074H77.0893C80.7994 93.5074 83.4853 92.5448 85.246 91.1504C86.9887 89.765 87.8152 87.9568 87.8331 86.2655M112.025 70.4321V68.1021C112.025 67.5983 111.755 67.4004 111.324 67.4004H97.499C97.0318 67.4004 96.7983 67.6703 96.7983 68.1021V93.0756C96.7983 93.5434 97.0318 93.7773 97.499 93.7773H101.218C101.685 93.7773 101.919 93.5434 101.919 93.0756V82.685C101.919 82.3341 102.116 82.2172 102.386 82.2172H109.554C110.021 82.2172 110.255 81.9833 110.255 81.4795V79.1944C110.255 78.6907 110.021 78.4568 109.554 78.4568H102.386C102.116 78.4568 101.919 78.3038 101.919 77.989V71.5926C101.919 71.2868 102.035 71.1248 102.341 71.1248H111.324C111.791 71.1248 112.025 70.9269 112.025 70.4231M119.669 69.5325C119.804 69.3976 119.867 69.2266 119.867 69.0467C119.867 68.8758 119.813 68.6959 119.678 68.5609L117.747 66.6357C117.612 66.5008 117.441 66.4378 117.262 66.4378C117.091 66.4378 116.911 66.5008 116.777 66.6357L114.836 68.5789C114.711 68.7139 114.648 68.8758 114.648 69.0467C114.648 69.2176 114.711 69.3796 114.836 69.5145L116.777 71.4577C116.911 71.5926 117.082 71.6556 117.253 71.6556C117.423 71.6556 117.603 71.5926 117.729 71.4577L119.651 69.5325H119.669ZM142.253 93.0846V81.1826C142.253 78.3128 141.902 76.6485 140.708 75.443C139.387 74.1206 137.761 73.4998 135.21 73.4998C132.264 73.4998 131.024 74.5884 129.829 74.5884C129.443 74.5884 129.407 74.4714 129.407 74.3185C129.407 74.0126 129.254 73.8147 128.868 73.8147H125.535C125.113 73.8147 124.835 74.0486 124.835 74.5164V93.0936C124.835 93.5614 125.068 93.7953 125.535 93.7953H128.985C129.452 93.7953 129.641 93.5614 129.641 93.0936V79.3294C129.641 77.6201 131.734 77.0444 133.548 77.0444C134.976 77.0444 136.063 77.4672 136.764 78.3668C137.267 79.0685 137.465 80.265 137.465 81.5874V93.1026C137.465 93.5254 137.662 93.8043 138.121 93.8043H141.57C142.037 93.8043 142.271 93.5344 142.271 93.1026M158.099 88.5505C158.099 89.9809 156.509 90.7186 154.263 90.7186C152.287 90.7186 151.047 89.9809 151.047 88.0017C151.047 86.2565 152.017 85.4378 153.949 84.7811L156.895 83.7735C157.398 83.5756 157.632 83.5396 157.785 83.5396C157.982 83.5396 158.09 83.6566 158.09 83.9265V88.5415L158.099 88.5505ZM162.824 93.0846V80.247C162.824 77.6111 162.438 76.3696 161.315 75.2451C160.156 74.1206 158.18 73.4998 155.081 73.4998C152.485 73.4998 150.158 73.8507 148.496 74.5434C147.643 74.8943 147.454 75.2001 147.454 75.7039V77.917C147.454 78.2678 147.607 78.5377 147.993 78.5377C148.766 78.5377 150.203 76.8734 154.461 76.8734C157.093 76.8734 158.099 77.5751 158.099 78.7716V79.3924C158.099 80.0131 157.865 80.247 156.895 80.5529L152.287 81.9473C147.795 83.3057 146.089 84.97 146.089 88.3886C146.089 91.1414 147.328 94.0922 152.673 94.0922C155.692 94.0922 157.084 93.0036 157.982 93.0036C158.252 93.0036 158.368 93.1206 158.368 93.3545C158.368 93.5884 158.521 93.7773 158.836 93.7773H162.123C162.626 93.7773 162.824 93.5434 162.824 93.0756M185.264 93.0846V81.1826C185.264 78.3128 184.914 76.6485 183.719 75.443C182.398 74.1206 180.772 73.4998 178.221 73.4998C175.275 73.4998 174.035 74.5884 172.84 74.5884C172.454 74.5884 172.418 74.4714 172.418 74.3185C172.418 74.0126 172.265 73.8147 171.879 73.8147H168.546C168.115 73.8147 167.846 74.0486 167.846 74.5164V93.0936C167.846 93.5614 168.079 93.7953 168.546 93.7953H171.996C172.463 93.7953 172.652 93.5614 172.652 93.0936V79.3294C172.652 77.6201 174.745 77.0444 176.559 77.0444C177.997 77.0444 179.075 77.4672 179.775 78.3668C180.278 79.0685 180.476 80.265 180.476 81.5874V93.1026C180.476 93.5254 180.674 93.8043 181.132 93.8043H184.581C185.048 93.8043 185.282 93.5344 185.282 93.1026M205.718 92.041V89.828C205.718 89.4411 205.566 89.1712 205.179 89.1712C204.443 89.1712 203.284 90.5657 199.915 90.5657C196.349 90.5657 194.148 88.3976 194.148 83.9354C194.148 79.7432 196.044 77.0354 200.194 77.0354C203.482 77.0354 204.299 78.3938 205.188 78.3938C205.539 78.3938 205.727 78.2408 205.727 77.773V75.524C205.727 74.9842 205.647 74.7503 205.027 74.4355C204.137 73.9676 201.892 73.5088 199.763 73.5088C192.558 73.5088 189.109 77.7011 189.109 84.0164C189.109 90.3318 192.558 94.1012 199.26 94.1012C201.424 94.1012 203.832 93.7503 204.991 93.1296C205.494 92.8957 205.727 92.5898 205.727 92.041M214.755 69.5325C214.89 69.3976 214.953 69.2266 214.953 69.0467C214.953 68.8758 214.899 68.6959 214.764 68.5609L212.833 66.6357C212.698 66.5008 212.528 66.4378 212.348 66.4378C212.177 66.4378 211.998 66.5008 211.872 66.6357L209.931 68.5789C209.806 68.7139 209.743 68.8758 209.743 69.0467C209.743 69.2176 209.806 69.3796 209.922 69.5145L211.872 71.4577C212.007 71.5926 212.177 71.6556 212.348 71.6556C212.519 71.6556 212.698 71.5926 212.824 71.4577L214.746 69.5325H214.755ZM230.754 88.5505C230.754 89.9809 229.164 90.7186 226.919 90.7186C224.942 90.7186 223.703 89.9809 223.703 88.0017C223.703 86.2565 224.673 85.4378 226.604 84.7811L229.551 83.7735C230.054 83.5756 230.287 83.5396 230.44 83.5396C230.638 83.5396 230.754 83.6566 230.754 83.9265V88.5415V88.5505ZM235.479 93.0846V80.247C235.479 77.6111 235.093 76.3696 233.97 75.2451C232.811 74.1206 230.835 73.4998 227.736 73.4998C225.14 73.4998 222.813 73.8507 221.151 74.5434C220.298 74.8943 220.109 75.2001 220.109 75.7039V77.917C220.109 78.2678 220.262 78.5377 220.648 78.5377C221.421 78.5377 222.858 76.8734 227.116 76.8734C229.748 76.8734 230.754 77.5751 230.754 78.7716V79.3924C230.754 80.0131 230.521 80.247 229.551 80.5529L224.942 81.9473C220.451 83.3057 218.744 84.97 218.744 88.3886C218.744 91.1414 219.984 94.0922 225.329 94.0922C228.347 94.0922 229.739 93.0036 230.638 93.0036C230.907 93.0036 231.024 93.1206 231.024 93.3545C231.024 93.5884 231.177 93.7773 231.491 93.7773H234.779C235.282 93.7773 235.479 93.5434 235.479 93.0756M245.442 93.0846V66.5998C245.442 66.096 245.208 65.8621 244.786 65.8621H241.336C240.914 65.8621 240.636 66.096 240.636 66.5638V93.0936C240.636 93.5614 240.905 93.7953 241.336 93.7953H244.786C245.208 93.7953 245.442 93.5614 245.442 93.0936M277.583 91.7262V82.2981C277.583 81.7944 277.314 81.5964 276.883 81.5964H273.28C272.858 81.5964 272.58 81.7944 272.58 82.2981V89.4771C272.58 90.0979 271.924 90.4487 269.795 90.4487C263.83 90.4487 260.812 87.1921 260.812 81.1376C260.812 74.4714 264.145 70.819 270.298 70.819C274.556 70.819 276.299 72.5642 276.999 72.5642C277.422 72.5642 277.583 72.3663 277.583 71.9435V69.4246C277.583 68.8398 277.43 68.5699 276.344 68.1471C274.754 67.5264 272.508 67.0586 269.489 67.0586C260.659 67.0586 255.548 72.3753 255.548 81.1376C255.548 89.8999 260.929 94.0922 269.454 94.0922C272.202 94.0922 274.529 93.6244 275.885 93.1656C277.359 92.6978 277.592 92.3109 277.592 91.7352M294.247 77.2603V74.6604C294.247 74.0036 293.977 73.4998 292.387 73.4998C289.674 73.4998 288.552 75.0112 287.393 75.0112C287.159 75.0112 286.962 74.8133 286.962 74.6244V74.2735C286.962 73.9676 286.809 73.8057 286.459 73.8057H283.09C282.623 73.8057 282.434 74.0396 282.434 74.5074V93.0846C282.434 93.5524 282.704 93.7863 283.09 93.7863H286.611C287.033 93.7863 287.231 93.5524 287.231 93.0846V80.5169C287.231 78.4208 288.552 77.5301 290.752 77.5301C292.846 77.5301 293.079 77.836 293.699 77.836C294.085 77.836 294.238 77.6021 294.238 77.2513M310.677 83.6566C310.677 88.7754 308.97 90.7546 305.754 90.7546C302.538 90.7546 300.796 88.8204 300.796 83.9265C300.796 79.0325 302.457 76.8644 305.718 76.8644C308.979 76.8644 310.677 78.7626 310.677 83.6476M315.708 83.7375C315.708 77.5301 312.258 73.4998 305.754 73.4998C299.25 73.4998 295.765 77.881 295.765 83.8545C295.765 89.828 299.17 94.1282 305.718 94.1282C312.267 94.1282 315.708 89.711 315.708 83.7375ZM336.827 93.0846V74.5074C336.827 74.0846 336.593 73.8057 336.171 73.8057H332.65C332.227 73.8057 332.03 74.0756 332.03 74.5074V88.1547C332.03 89.1982 331.563 89.747 330.637 90.1338C329.982 90.4037 329.011 90.5567 328.275 90.5567C325.257 90.5567 324.206 89.2792 324.206 86.4094V74.5074C324.206 74.0846 324.008 73.8057 323.586 73.8057H320.064C319.597 73.8057 319.409 74.0756 319.409 74.5074V85.7527C319.409 89.0093 319.561 90.7186 320.882 92.149C322.121 93.5434 324.17 94.0922 326.415 94.0922C329.586 94.0922 330.602 93.0036 331.877 93.0036C332.191 93.0036 332.263 93.1206 332.263 93.2735C332.263 93.5794 332.38 93.7773 332.802 93.7773H336.135C336.602 93.7773 336.836 93.5434 336.836 93.0756M355.925 83.6206C355.925 88.7754 353.481 90.6376 350.266 90.6376C348.604 90.6376 346.627 90.0529 346.627 88.4246V79.2754C346.627 77.5661 348.604 76.9904 350.266 76.9904C354.29 76.9904 355.925 79.5093 355.925 83.6206ZM361 83.5396C361 77.3322 357.668 73.4908 351.865 73.4908C348.918 73.4908 347.642 74.5794 346.753 74.5794C346.448 74.5794 346.367 74.4984 346.367 74.2735C346.367 74.0036 346.25 73.8057 345.828 73.8057H342.531C342.064 73.8057 341.83 74.0756 341.83 74.5074V101.307C341.83 101.775 342.064 102 342.486 102H346.008C346.439 102 346.627 101.766 346.627 101.307V93.5524C346.627 93.2015 346.78 93.0486 347.014 93.0486C347.4 93.0486 348.792 94.1372 351.586 94.1372C357.317 94.1372 361 90.2958 361 83.5486" fill="#021D49"/>
        <path d="M7.99963 64V94.794H38.7488V94.758L31.0593 87.0933L36.7635 81.3807L38.7488 83.2789V64H7.99963Z" fill="#0091D0"/>
        <path d="M7.99963 64V79.3925L15.6892 71.7008L7.99963 64Z" fill="#009CD8"/>
        <path d="M7.99963 64L15.6892 71.7008L23.3697 64H7.99963Z" fill="#0091D0"/>
        <path d="M7.99951 79.3922H23.3696L15.689 71.7004L7.99951 79.3922Z" fill="#0091D0"/>
        <path d="M23.369 64L15.6885 71.7008L23.369 79.3925V64Z" fill="#0082C9"/>
        <path d="M23.3722 64V79.3925L31.0617 71.7008L23.3722 64Z" fill="#0070BB"/>
        <path d="M23.3722 64L31.0617 71.7008L38.7513 64H23.3722Z" fill="#0060AF"/>
        <path d="M23.3722 79.3922H38.7513L31.0617 71.7004L23.3722 79.3922Z" fill="#004C98"/>
        <path d="M38.7507 64L31.0612 71.7008L38.7507 79.3925V64Z" fill="#00529C"/>
        <path d="M7.99951 94.7943L15.689 87.0936L7.99951 79.3928V94.7943Z" fill="#0070BB"/>
        <path d="M7.99951 79.3928L15.689 87.0936L23.3696 79.3928H7.99951Z" fill="#0082C9"/>
        <path d="M7.99951 94.794H23.3696L15.689 87.0933L7.99951 94.794Z" fill="#0060AF"/>
        <path d="M15.6885 87.0936L23.369 94.7943V79.3928L15.6885 87.0936Z" fill="#00529C"/>
        <path d="M23.3722 79.3928V94.7943L31.0617 87.0936L23.3722 79.3928Z" fill="#004C98"/>
        <path d="M38.7513 79.3928H23.3722L31.0617 87.0936L38.7513 79.3928Z" fill="#1C378A"/>
        <path d="M38.7503 79.3928L36.765 81.381L38.7503 83.2792V79.3928Z" fill="#1C378A"/>
        <path d="M23.3722 94.794H38.7513V94.758L31.0617 87.0933L23.3722 94.794Z" fill="#1C378A"/>
        <path d="M38.7513 79.3928H23.3722L31.0617 87.0936L38.7513 79.3928Z" fill="#1C378A"/>
        <path d="M38.7503 79.3928L36.765 81.381L38.7503 83.2792V79.3928Z" fill="#1C378A"/>
        <path d="M23.3722 94.794H38.7513V94.758L31.0617 87.0933L23.3722 94.794Z" fill="#1C378A"/>
        <path d="M38.7487 94.7579L31.0591 87.0931L28.9301 84.961L19.417 94.344L13.9283 88.8563L28.8942 73.8687L38.7487 83.2787V94.7579Z" fill="white"/>
    </g>
    <defs>
        <clipPath id="clip0_838_55934">
            <rect width="353" height="38" fill="white" transform="translate(8 64)"/>
        </clipPath>
    </defs>
</svg>
