<svg width="370" height="170" viewBox="0 0 370 170" fill="none" xmlns="http://www.w3.org/2000/svg">
    <g clip-path="url(#clip0_838_55962)">
        <path d="M189.298 119.592V132.706C189.298 133.037 189.488 133.202 189.793 133.202H192.232C192.53 133.202 192.695 133.037 192.695 132.706V119.617C192.695 119.287 192.556 119.096 192.232 119.096H189.793C189.437 119.096 189.298 119.287 189.298 119.592ZM122.067 119.592V132.706C122.067 133.037 122.258 133.202 122.562 133.202H125.001C125.3 133.202 125.465 133.037 125.465 132.706V119.617C125.465 119.287 125.325 119.096 125.001 119.096H122.562C122.207 119.096 122.067 119.287 122.067 119.592ZM120.06 116.715V115.07C120.06 114.714 119.87 114.575 119.565 114.575H109.791C109.461 114.575 109.295 114.765 109.295 115.07V132.7C109.295 133.03 109.461 133.195 109.791 133.195H112.42C112.75 133.195 112.915 133.03 112.915 132.7V125.365C112.915 125.117 113.055 125.034 113.246 125.034H118.314C118.644 125.034 118.809 124.869 118.809 124.514V122.901C118.809 122.545 118.644 122.38 118.314 122.38H113.246C113.055 122.38 112.915 122.272 112.915 122.05V117.534C112.915 117.318 112.998 117.204 113.214 117.204H119.565C119.895 117.204 120.06 117.064 120.06 116.708M125.471 116.08C125.566 115.984 125.611 115.864 125.611 115.737C125.611 115.616 125.573 115.489 125.478 115.394L124.112 114.035C124.017 113.939 123.896 113.895 123.769 113.895C123.648 113.895 123.521 113.939 123.426 114.035L122.054 115.407C121.965 115.502 121.921 115.616 121.921 115.737C121.921 115.857 121.965 115.972 122.048 116.067L123.42 117.439C123.515 117.534 123.636 117.579 123.756 117.579C123.877 117.579 124.004 117.534 124.093 117.439L125.452 116.08H125.471ZM141.431 132.706V124.304C141.431 122.278 141.183 121.103 140.332 120.252C139.405 119.319 138.249 118.88 136.446 118.88C134.362 118.88 133.486 119.649 132.641 119.649C132.368 119.649 132.343 119.566 132.343 119.458C132.343 119.242 132.235 119.103 131.962 119.103H129.606C129.307 119.103 129.11 119.268 129.11 119.598V132.713C129.11 133.043 129.275 133.208 129.606 133.208H132.044C132.375 133.208 132.508 133.043 132.508 132.713V122.996C132.508 121.789 133.988 121.383 135.271 121.383C136.287 121.383 137.049 121.681 137.544 122.316C137.9 122.812 138.04 123.656 138.04 124.59V132.719C138.04 133.018 138.179 133.214 138.503 133.214H140.942C141.272 133.214 141.437 133.024 141.437 132.719M152.64 129.499C152.64 130.509 151.516 131.03 149.928 131.03C148.531 131.03 147.655 130.509 147.655 129.112C147.655 127.88 148.341 127.302 149.706 126.838L151.789 126.127C152.145 125.987 152.31 125.962 152.418 125.962C152.558 125.962 152.634 126.044 152.634 126.235V129.493L152.64 129.499ZM155.981 132.706V123.644C155.981 121.783 155.708 120.906 154.914 120.113C154.095 119.319 152.697 118.88 150.506 118.88C148.671 118.88 147.026 119.128 145.851 119.617C145.248 119.865 145.115 120.081 145.115 120.436V121.999C145.115 122.246 145.222 122.437 145.496 122.437C146.042 122.437 147.058 121.262 150.068 121.262C151.929 121.262 152.64 121.757 152.64 122.602V123.04C152.64 123.479 152.475 123.644 151.789 123.86L148.531 124.844C145.356 125.803 144.149 126.978 144.149 129.391C144.149 131.335 145.026 133.418 148.804 133.418C150.938 133.418 151.923 132.649 152.558 132.649C152.748 132.649 152.831 132.732 152.831 132.897C152.831 133.062 152.939 133.195 153.161 133.195H155.486C155.841 133.195 155.981 133.03 155.981 132.7M171.839 132.706V124.304C171.839 122.278 171.591 121.103 170.747 120.252C169.813 119.319 168.664 118.88 166.86 118.88C164.777 118.88 163.9 119.649 163.056 119.649C162.783 119.649 162.757 119.566 162.757 119.458C162.757 119.242 162.649 119.103 162.376 119.103H160.02C159.715 119.103 159.525 119.268 159.525 119.598V132.713C159.525 133.043 159.69 133.208 160.02 133.208H162.459C162.789 133.208 162.922 133.043 162.922 132.713V122.996C162.922 121.789 164.402 121.383 165.685 121.383C166.701 121.383 167.463 121.681 167.959 122.316C168.314 122.812 168.454 123.656 168.454 124.59V132.719C168.454 133.018 168.594 133.214 168.918 133.214H171.356C171.687 133.214 171.852 133.024 171.852 132.719M186.3 131.963V130.401C186.3 130.128 186.192 129.937 185.919 129.937C185.398 129.937 184.579 130.922 182.197 130.922C179.676 130.922 178.12 129.391 178.12 126.241C178.12 123.282 179.46 121.37 182.394 121.37C184.719 121.37 185.297 122.329 185.925 122.329C186.173 122.329 186.306 122.221 186.306 121.891V120.303C186.306 119.922 186.249 119.757 185.811 119.535C185.182 119.204 183.595 118.88 182.089 118.88C176.996 118.88 174.557 121.84 174.557 126.298C174.557 130.757 176.996 133.418 181.734 133.418C183.264 133.418 184.966 133.17 185.786 132.732C186.141 132.567 186.306 132.351 186.306 131.963M192.689 116.08C192.784 115.984 192.829 115.864 192.829 115.737C192.829 115.616 192.791 115.489 192.695 115.394L191.33 114.035C191.235 113.939 191.114 113.895 190.987 113.895C190.866 113.895 190.739 113.939 190.644 114.035L189.272 115.407C189.183 115.502 189.139 115.616 189.139 115.737C189.139 115.857 189.183 115.972 189.266 116.067L190.638 117.439C190.733 117.534 190.854 117.579 190.974 117.579C191.095 117.579 191.222 117.534 191.311 117.439L192.67 116.08H192.689ZM204.006 129.499C204.006 130.509 202.882 131.03 201.295 131.03C199.897 131.03 199.021 130.509 199.021 129.112C199.021 127.88 199.707 127.302 201.072 126.838L203.155 126.127C203.511 125.987 203.676 125.962 203.784 125.962C203.924 125.962 204.006 126.044 204.006 126.235V129.493V129.499ZM207.347 132.706V123.644C207.347 121.783 207.074 120.906 206.28 120.113C205.461 119.319 204.064 118.88 201.873 118.88C200.037 118.88 198.392 119.128 197.217 119.617C196.614 119.865 196.481 120.081 196.481 120.436V121.999C196.481 122.246 196.589 122.437 196.862 122.437C197.408 122.437 198.424 121.262 201.434 121.262C203.295 121.262 204.006 121.757 204.006 122.602V123.04C204.006 123.479 203.841 123.644 203.155 123.86L199.897 124.844C196.722 125.803 195.515 126.978 195.515 129.391C195.515 131.335 196.392 133.418 200.17 133.418C202.304 133.418 203.289 132.649 203.924 132.649C204.114 132.649 204.197 132.732 204.197 132.897C204.197 133.062 204.305 133.195 204.527 133.195H206.852C207.207 133.195 207.347 133.03 207.347 132.7M214.39 132.706V114.009C214.39 113.654 214.225 113.489 213.927 113.489H211.488C211.189 113.489 210.992 113.654 210.992 113.984V132.713C210.992 133.043 211.183 133.208 211.488 133.208H213.927C214.225 133.208 214.39 133.043 214.39 132.713M237.107 131.747V125.092C237.107 124.736 236.917 124.596 236.612 124.596H234.065C233.767 124.596 233.57 124.736 233.57 125.092V130.16C233.57 130.598 233.106 130.846 231.601 130.846C227.384 130.846 225.25 128.547 225.25 124.272C225.25 119.566 227.606 116.988 231.957 116.988C234.967 116.988 236.199 118.22 236.695 118.22C236.993 118.22 237.107 118.08 237.107 117.782V116.003C237.107 115.591 236.999 115.4 236.231 115.102C235.107 114.663 233.519 114.333 231.385 114.333C225.142 114.333 221.529 118.087 221.529 124.272C221.529 130.458 225.333 133.418 231.36 133.418C233.303 133.418 234.948 133.087 235.907 132.764C236.949 132.433 237.114 132.16 237.114 131.754M248.888 121.535V119.7C248.888 119.236 248.698 118.88 247.574 118.88C245.656 118.88 244.862 119.947 244.043 119.947C243.877 119.947 243.738 119.808 243.738 119.674V119.427C243.738 119.211 243.63 119.096 243.382 119.096H241C240.67 119.096 240.537 119.261 240.537 119.592V132.706C240.537 133.037 240.727 133.202 241 133.202H243.49C243.795 133.202 243.928 133.037 243.928 132.706V123.834C243.928 122.354 244.862 121.726 246.418 121.726C247.898 121.726 248.063 121.942 248.501 121.942C248.774 121.942 248.882 121.776 248.882 121.529M260.504 126.051C260.504 129.664 259.297 131.061 257.024 131.061C254.75 131.061 253.518 129.69 253.518 126.241C253.518 122.793 254.693 121.256 256.998 121.256C259.304 121.256 260.504 122.596 260.504 126.044M264.061 126.108C264.061 121.726 261.622 118.88 257.024 118.88C252.426 118.88 249.962 121.973 249.962 126.19C249.962 130.407 252.369 133.443 256.998 133.443C261.628 133.443 264.061 130.325 264.061 126.108ZM278.992 132.706V119.592C278.992 119.293 278.826 119.096 278.528 119.096H276.038C275.74 119.096 275.6 119.287 275.6 119.592V129.226C275.6 129.963 275.27 130.35 274.616 130.623C274.152 130.814 273.466 130.922 272.945 130.922C270.812 130.922 270.068 130.02 270.068 127.994V119.592C270.068 119.293 269.929 119.096 269.63 119.096H267.141C266.811 119.096 266.677 119.287 266.677 119.592V127.53C266.677 129.829 266.785 131.036 267.719 132.046C268.595 133.03 270.043 133.418 271.631 133.418C273.873 133.418 274.59 132.649 275.492 132.649C275.714 132.649 275.765 132.732 275.765 132.84C275.765 133.056 275.848 133.195 276.146 133.195H278.503C278.833 133.195 278.998 133.03 278.998 132.7M292.5 126.025C292.5 129.664 290.772 130.979 288.499 130.979C287.324 130.979 285.927 130.566 285.927 129.417V122.958C285.927 121.751 287.324 121.345 288.499 121.345C291.344 121.345 292.5 123.123 292.5 126.025ZM296.082 125.968C296.082 121.586 293.726 118.874 289.623 118.874C287.54 118.874 286.638 119.643 286.009 119.643C285.793 119.643 285.736 119.585 285.736 119.427C285.736 119.236 285.654 119.096 285.355 119.096H283.024C282.694 119.096 282.529 119.287 282.529 119.592V138.511C282.529 138.841 282.694 139 282.993 139H285.482C285.781 139 285.92 138.835 285.92 138.511V133.037C285.92 132.789 286.028 132.681 286.193 132.681C286.467 132.681 287.451 133.449 289.426 133.449C293.478 133.449 296.082 130.738 296.082 125.974" fill="#021D49"/>
        <path d="M83.4218 132.008C84.4888 130.909 85.1048 129.277 85.1048 127.054V114.06H81.4403V127.048C81.4403 128.388 81.1038 129.29 80.5576 129.855C80.0177 130.414 79.3001 130.617 78.5761 130.617H78.538C77.09 130.617 75.9532 130.052 75.0132 129.01L73 131.074C74.2384 132.522 76.0421 133.71 78.7603 133.71C80.729 133.71 82.3358 133.125 83.4218 131.995M99.0959 127.651C99.0959 129.34 97.8257 130.515 96.384 130.795C95.9522 130.884 95.5965 130.896 95.4187 130.896C95.2409 130.896 92.0654 130.896 92.0654 130.896V124.393C92.0654 124.393 95.4123 124.393 95.425 124.393C95.8696 124.393 96.384 124.501 96.3904 124.501C97.832 124.793 99.0768 126.12 99.0895 127.632V127.657L99.0959 127.651ZM97.4446 119.236C97.4256 120.836 95.9649 122.335 94.4025 122.342C94.3771 122.342 92.0654 122.354 92.0654 122.354V116.061C92.0654 116.061 92.4782 116.035 92.9418 116.035C93.4499 116.035 94.1422 116.054 94.809 116.15C96.13 116.34 97.4256 117.718 97.4383 119.185V119.236H97.4446ZM102.957 127.886V127.854C102.957 125.549 101.192 123.815 98.6195 123.072L98.1496 122.932L98.5814 122.704C100.093 121.884 100.887 120.69 100.893 119.052V118.988C100.893 117.775 100.379 116.537 99.2864 115.61C98.2067 114.695 96.5745 114.085 94.3644 114.066H88.5407V133.005H95.3679C97.9845 133.005 99.8897 132.325 101.134 131.341C102.367 130.363 102.951 129.08 102.964 127.892" fill="#021D49"/>
        <path d="M151.935 32V97.2174H217.153V97.1476L200.844 80.9146L212.942 68.8162L217.153 72.8363V32H151.935Z" fill="#0091D0"/>
        <path d="M151.935 32V64.6055L168.238 48.3028L151.935 32Z" fill="#009CD8"/>
        <path d="M184.541 32H151.935L168.238 48.3028L184.541 32Z" fill="#0091D0"/>
        <path d="M151.935 64.6055H184.541L168.238 48.3027L151.935 64.6055Z" fill="#0091D0"/>
        <path d="M168.238 48.3028L184.541 64.6055V32L168.238 48.3028Z" fill="#0082C9"/>
        <path d="M184.541 32V64.6055L200.844 48.3028L184.541 32Z" fill="#0071BB"/>
        <path d="M217.153 32H184.541L200.844 48.3028L217.153 32Z" fill="#0061AF"/>
        <path d="M184.541 64.6055H217.153L200.844 48.3027L184.541 64.6055Z" fill="#004C98"/>
        <path d="M200.844 48.3028L217.153 64.6055V32L200.844 48.3028Z" fill="#00529C"/>
        <path d="M151.935 64.6057V97.2176L168.238 80.9148L151.935 64.6057Z" fill="#0071BB"/>
        <path d="M184.541 64.6057H151.935L168.238 80.9148L184.541 64.6057Z" fill="#0082C9"/>
        <path d="M151.935 97.2173H184.541L168.238 80.9146L151.935 97.2173Z" fill="#0061AF"/>
        <path d="M168.238 80.9148L184.541 97.2176V64.6057L168.238 80.9148Z" fill="#00529C"/>
        <path d="M184.541 64.6057V97.2176L200.844 80.9148L184.541 64.6057Z" fill="#004C98"/>
        <path d="M217.153 64.6057H184.541L200.844 80.9148L217.153 64.6057Z" fill="#1D388B"/>
        <path d="M217.153 64.6057L212.942 68.8164L217.153 72.8365V64.6057Z" fill="#1D388B"/>
        <path d="M184.541 97.2173H217.153V97.1475L200.844 80.9146L184.541 97.2173Z" fill="#1D388B"/>
        <path d="M217.153 64.6057H184.541L200.844 80.9148L217.153 64.6057Z" fill="#1D388B"/>
        <path d="M217.153 64.6057L212.942 68.8164L217.153 72.8365V64.6057Z" fill="#1D388B"/>
        <path d="M184.541 97.2173H217.153V97.1475L200.844 80.9146L184.541 97.2173Z" fill="#1D388B"/>
        <path d="M217.153 97.1476L200.844 80.9147L196.328 76.3929L176.145 96.2712L164.51 84.6427L196.252 52.8945L217.153 72.8364V97.1476Z" fill="white"/>
    </g>
    <defs>
        <clipPath id="clip0_838_55962">
            <rect width="223.082" height="107" fill="white" transform="translate(73 32)"/>
        </clipPath>
    </defs>
</svg>
