<svg width="370" height="170" viewBox="0 0 370 170" fill="none" xmlns="http://www.w3.org/2000/svg">
    <g clip-path="url(#clip0_838_55822)">
        <path d="M279.291 96.4433H294.878V99.0379H279.793C279.529 99.0379 279.423 98.924 279.362 98.8013C279.309 98.6961 279.3 98.5471 279.3 98.5471V96.4433H279.291ZM274.248 89.5098V98.8451C274.38 100.572 275.745 101.86 277.443 102.062H299.92V89.5186H294.878V93.6997H279.291V89.5186H274.248V89.5098ZM183.714 98.959H170.645C170.416 98.959 170.363 98.8801 170.328 98.7925V92.4375H183.714V98.959ZM188.748 89.3608H165.294V98.8626C165.426 100.563 166.711 101.922 168.418 102.036H188.748V89.3608ZM125.717 99.5113C127.398 97.6705 128.366 94.9444 128.366 91.2278V70.2169H122.593V91.2103C122.593 93.4543 122.065 94.9707 121.211 95.9086C120.366 96.8378 119.231 97.1796 118.087 97.1884H118.025C115.746 97.1884 113.95 96.2417 112.472 94.5061L109.295 97.9598C111.248 100.388 114.082 102.369 118.377 102.369C121.475 102.369 124.01 101.387 125.726 99.5025M151.151 92.9634C151.151 95.7947 149.153 97.7494 146.883 98.2227C146.196 98.3717 145.642 98.398 145.36 98.398C145.079 98.398 140.08 98.398 140.08 98.398V87.5113C140.08 87.5113 145.36 87.5113 145.369 87.5113C146.064 87.5113 146.874 87.6866 146.892 87.6866C149.162 88.1774 151.134 90.4039 151.151 92.9284V92.9722V92.9634ZM148.555 78.8772C148.529 81.5595 146.223 84.0664 143.767 84.0752C143.723 84.0752 140.089 84.0927 140.089 84.0927V73.5653C140.089 73.5653 140.74 73.5215 141.47 73.5215C142.271 73.5215 143.354 73.5566 144.41 73.7143C146.496 74.0387 148.529 76.3352 148.555 78.7896V78.8772ZM157.241 93.3491V93.2965C157.241 89.4397 154.46 86.5383 150.412 85.2936L149.673 85.0657L150.359 84.68C152.735 83.3126 153.994 81.314 154.003 78.5704V78.4652C154.003 76.4316 153.193 74.363 151.477 72.8115C149.778 71.2775 147.209 70.2607 143.715 70.2344H134.535V101.922H145.29C149.418 101.922 152.41 100.791 154.372 99.1343C156.317 97.4952 157.233 95.3564 157.25 93.3666M160.718 85.9335H194.469V82.8568H188.317V70.0942H164.977L166.121 73.1621H183.283V82.8568H159.6L160.718 85.9335ZM219.402 75.0116C219.402 76.9751 217.509 78.588 215.151 78.588C212.792 78.588 210.9 76.9663 210.9 75.0116C210.9 73.0482 212.792 71.4353 215.151 71.4353C217.509 71.4353 219.402 73.0569 219.402 75.0116ZM224.057 75.0116C224.057 71.1548 220.053 68.0693 215.151 68.0693C210.249 68.0693 206.244 71.1548 206.244 75.0116C206.244 78.8685 210.258 81.9539 215.151 81.9627C220.053 81.9627 224.057 78.8772 224.057 75.0116ZM219.586 95.7684C219.586 97.8195 217.615 99.5025 215.151 99.5025C212.687 99.5025 210.724 97.8195 210.715 95.7684C210.715 93.7173 212.687 92.0343 215.151 92.0343C217.615 92.0343 219.578 93.7173 219.586 95.7684ZM218.689 89.0891C217.597 88.7384 216.401 88.5368 215.151 88.5368C213.901 88.5368 212.704 88.7384 211.613 89.0891V85.9335H218.698V89.0891H218.689ZM222.755 85.9335H232.163V82.8743H198.174L199.292 85.9335H207.556V91.6311C206.508 92.7969 205.884 94.2257 205.884 95.7684C205.884 99.783 210.055 102.991 215.16 103C220.264 103 224.427 99.783 224.436 95.7684C224.436 94.2257 223.811 92.7969 222.764 91.6311V85.9335H222.755ZM256.559 93.0335H261.602V72.119H235.886L237.038 75.1869H256.55V93.0248L256.559 93.0335ZM233.228 99.1343H267.56V95.8122H231.846L233.228 99.1343ZM277.822 82.5237H300.836V79.447H279.943C279.476 79.447 279.441 79.0788 279.432 78.9649V77.466H300.167V69.6384H273.307L274.442 72.7151H295.142V74.7136H274.389V78.9386C274.451 80.8319 275.947 82.3834 277.83 82.5237M304.4 87.5113V84.4346H269.144L270.297 87.5113H284.237V91.9729H289.351V87.5113H304.4Z" fill="#021D49"/>
        <path d="M65 67V103H101.145V102.965L92.1153 94.0066L98.8128 87.3272L101.145 89.5449V67H65Z" fill="#0091D0"/>
        <path d="M65 67V85.0044L74.0384 76.0022L65 67Z" fill="#009CD8"/>
        <path d="M65 67L74.0384 76.0022L83.0769 67H65Z" fill="#0091D0"/>
        <path d="M65 85.0044H83.0769L74.0384 76.0022L65 85.0044Z" fill="#0091D0"/>
        <path d="M83.0769 67L74.0385 76.0022L83.0769 85.0044V67Z" fill="#0082C9"/>
        <path d="M83.0769 67V85.0044L92.1153 76.0022L83.0769 67Z" fill="#0071BB"/>
        <path d="M83.0769 67L92.1153 76.0022L101.145 67H83.0769Z" fill="#0061AF"/>
        <path d="M83.0769 85.0044H101.145L92.1153 76.0022L83.0769 85.0044Z" fill="#004C98"/>
        <path d="M101.145 67L92.1154 76.0022L101.145 85.0044V67Z" fill="#00529C"/>
        <path d="M65 103L74.0384 94.0066L65 85.0044V103Z" fill="#0071BB"/>
        <path d="M65 85.0044L74.0384 94.0066L83.0769 85.0044H65Z" fill="#0082C9"/>
        <path d="M65 103H83.0769L74.0384 94.0066L65 103Z" fill="#0061AF"/>
        <path d="M74.0385 94.0066L83.0769 103V85.0044L74.0385 94.0066Z" fill="#00529C"/>
        <path d="M83.0769 85.0044V103L92.1153 94.0066L83.0769 85.0044Z" fill="#004C98"/>
        <path d="M101.145 85.0044H83.0769L92.1153 94.0066L101.145 85.0044Z" fill="#1D388B"/>
        <path d="M101.145 85.0044L98.8127 87.3273L101.145 89.5449V85.0044Z" fill="#1D388B"/>
        <path d="M83.0769 103H101.145V102.965L92.1153 94.0066L83.0769 103Z" fill="#1D388B"/>
        <path d="M101.145 85.0044H83.0769L92.1153 94.0066L101.145 85.0044Z" fill="#1D388B"/>
        <path d="M101.145 85.0044L98.8127 87.3273L101.145 89.5449V85.0044Z" fill="#1D388B"/>
        <path d="M83.0769 103H101.145V102.965L92.1153 94.0066L83.0769 103Z" fill="#1D388B"/>
        <path d="M101.145 102.965L92.1153 94.0065L89.6071 91.5084L78.4212 102.483L71.9702 96.0577L89.5631 78.5354L101.145 89.5449V102.965Z" fill="white"/>
    </g>
    <defs>
        <clipPath id="clip0_838_55822">
            <rect width="239.4" height="36" fill="white" transform="translate(65 67)"/>
        </clipPath>
    </defs>
</svg>
