<svg width="370" height="170" viewBox="0 0 370 170" fill="none" xmlns="http://www.w3.org/2000/svg">
    <g clip-path="url(#clip0_838_55796)">
        <path d="M247.777 133.277H261.326V135.542H248.213C247.984 135.542 247.892 135.443 247.838 135.335C247.793 135.244 247.785 135.114 247.785 135.114V133.277H247.777ZM243.393 127.218V135.366C243.508 136.873 244.694 137.998 246.171 138.174H265.71V127.226H261.326V130.875H247.777V127.226H243.393V127.218ZM164.693 135.473H153.332C153.133 135.473 153.087 135.404 153.056 135.328V129.781H164.693V135.473ZM169.076 127.088H148.688V135.381C148.803 136.866 149.92 138.051 151.404 138.151H169.076V127.088ZM114.276 135.955C115.737 134.349 116.579 131.969 116.579 128.725V110.395H111.56V128.718C111.56 130.676 111.101 132 110.359 132.818C109.624 133.629 108.637 133.928 107.643 133.935H107.589C105.608 133.935 104.047 133.109 102.762 131.594L100 134.609C101.698 136.728 104.162 138.457 107.895 138.457C110.588 138.457 112.792 137.6 114.283 135.955M136.386 130.24C136.386 132.711 134.649 134.417 132.675 134.831C132.079 134.961 131.597 134.984 131.352 134.984C131.107 134.984 126.761 134.984 126.761 134.984V125.482C126.761 125.482 131.352 125.482 131.359 125.482C131.964 125.482 132.668 125.635 132.683 125.635C134.657 126.063 136.371 128.006 136.386 130.21V130.248V130.24ZM134.129 117.946C134.106 120.287 132.102 122.475 129.967 122.483C129.929 122.483 126.769 122.498 126.769 122.498V113.302C126.769 113.302 127.335 113.264 127.97 113.264C128.666 113.264 129.607 113.294 130.526 113.432C132.339 113.715 134.106 115.72 134.129 117.862V117.938V117.946ZM141.68 130.577V130.531C141.68 127.165 139.262 124.632 135.743 123.546L135.101 123.347L135.697 123.01C137.763 121.817 138.857 120.073 138.865 117.678V117.586C138.865 115.811 138.161 114.006 136.669 112.652C135.192 111.313 132.958 110.425 129.921 110.402H121.942V138.059H131.291C134.879 138.059 137.48 137.072 139.186 135.626C140.877 134.196 141.672 132.329 141.688 130.592M144.71 124.105H174.049V121.419H168.702V110.28H148.412L149.407 112.958H164.325V121.419H143.738L144.71 124.105ZM195.723 114.572C195.723 116.286 194.078 117.693 192.028 117.693C189.978 117.693 188.333 116.278 188.333 114.572C188.333 112.858 189.978 111.451 192.028 111.451C194.078 111.451 195.723 112.866 195.723 114.572ZM199.77 114.572C199.77 111.198 196.289 108.513 192.028 108.505C187.767 108.505 184.286 111.198 184.286 114.572C184.286 117.938 187.774 120.631 192.028 120.631C196.289 120.631 199.77 117.938 199.77 114.572ZM195.876 132.688C195.876 134.479 194.162 135.947 192.02 135.947C189.878 135.947 188.172 134.479 188.164 132.688C188.164 130.898 189.878 129.429 192.02 129.429C194.162 129.429 195.869 130.898 195.876 132.688ZM195.103 126.859C194.155 126.553 193.114 126.377 192.028 126.377C190.942 126.377 189.901 126.553 188.952 126.859V124.105H195.111V126.859H195.103ZM198.63 124.105H206.809V121.434H177.262L178.234 124.105H185.418V129.077C184.508 130.095 183.964 131.342 183.964 132.688C183.964 136.192 187.591 138.992 192.028 139C196.465 139 200.084 136.192 200.092 132.688C200.092 131.342 199.548 130.095 198.638 129.077V124.105H198.63ZM228.016 130.301H232.4V112.047H210.045L211.047 114.725H228.008V130.294L228.016 130.301ZM207.734 135.619H237.579V132.719H206.533L207.734 135.619ZM246.5 121.121H266.506V118.435H248.343C247.938 118.435 247.907 118.114 247.9 118.015V116.706H265.924V109.875H242.575L243.562 112.56H261.556V114.304H243.516V117.992C243.569 119.644 244.87 120.998 246.507 121.121M269.604 125.482V122.796H238.956L239.958 125.482H252.077V129.376H256.522V125.482H269.604Z" fill="#021D49"/>
        <path d="M153.378 32V94.8489H216.226V94.7801L200.512 79.1348L212.164 67.4831L216.226 71.3542V32H153.378Z" fill="#0091D0"/>
        <path d="M153.378 63.4206L169.092 47.7141L153.378 32V63.4206Z" fill="#009CD8"/>
        <path d="M153.378 32L169.092 47.7141L184.798 32H153.378Z" fill="#0091D0"/>
        <path d="M153.378 63.4208H184.798L169.092 47.7144L153.378 63.4208Z" fill="#0091D0"/>
        <path d="M169.092 47.7141L184.798 63.4206V32L169.092 47.7141Z" fill="#0082C9"/>
        <path d="M184.798 63.4206L200.512 47.7141L184.798 32V63.4206Z" fill="#0071BB"/>
        <path d="M184.798 32L200.512 47.7141L216.227 32H184.798Z" fill="#0061AF"/>
        <path d="M184.798 63.4208H216.227L200.512 47.7144L184.798 63.4208Z" fill="#004C98"/>
        <path d="M200.512 47.7141L216.226 63.4206V32L200.512 47.7141Z" fill="#00529C"/>
        <path d="M153.378 63.4207V94.8489L169.092 79.1348L153.378 63.4207Z" fill="#0071BB"/>
        <path d="M184.798 63.4207H153.378L169.092 79.1348L184.798 63.4207Z" fill="#0082C9"/>
        <path d="M153.378 94.8492H184.798L169.092 79.135L153.378 94.8492Z" fill="#0061AF"/>
        <path d="M169.092 79.1348L184.798 94.8489V63.4207L169.092 79.1348Z" fill="#00529C"/>
        <path d="M184.798 63.4207V94.8489L200.512 79.1348L184.798 63.4207Z" fill="#004C98"/>
        <path d="M216.227 63.4207H184.798L200.512 79.1348L216.227 63.4207Z" fill="#1D388B"/>
        <path d="M216.226 63.4207L212.164 67.4831L216.226 71.3542V63.4207Z" fill="#1D388B"/>
        <path d="M184.798 94.8492H216.227V94.7803L200.512 79.135L184.798 94.8492Z" fill="#1D388B"/>
        <path d="M216.227 63.4207H184.798L200.512 79.1348L216.227 63.4207Z" fill="#1D388B"/>
        <path d="M216.226 63.4207L212.164 67.4831L216.226 71.3542V63.4207Z" fill="#1D388B"/>
        <path d="M184.798 94.8492H216.227V94.7803L200.512 79.135L184.798 94.8492Z" fill="#1D388B"/>
        <path d="M216.226 94.7802L200.512 79.1349L196.159 74.7817L176.712 93.9386L165.496 82.7306L196.09 52.1362L216.226 71.3543V94.7802Z" fill="white"/>
    </g>
    <defs>
        <clipPath id="clip0_838_55796">
            <rect width="169.604" height="107" fill="white" transform="translate(100 32)"/>
        </clipPath>
    </defs>
</svg>
