<svg width="370" height="170" viewBox="0 0 370 170" fill="none" xmlns="http://www.w3.org/2000/svg">
    <path d="M162.301 98.9512H149.262C149.034 98.9512 148.981 98.8722 148.946 98.7844V92.4185H162.301V98.9512ZM167.324 89.3278H143.924V98.8459C144.056 100.549 145.338 101.91 147.041 102.024H167.324V89.3278ZM103.376 99.4605C105.053 97.6166 106.019 94.8859 106.027 91.1629V70.1161H100.267V91.1454C100.267 93.3932 99.7405 94.9034 98.8888 95.8517C98.0459 96.7824 96.9132 97.1249 95.7717 97.1337H95.7102C93.4361 97.1337 91.6449 96.1854 90.1698 94.4468L87 97.9063C88.9493 100.339 91.7766 102.323 96.0615 102.323C99.1522 102.323 101.681 101.34 103.384 99.4517M128.751 92.9015C128.751 95.7376 126.758 97.7044 124.493 98.1698C123.808 98.319 123.255 98.3454 122.974 98.3454C122.693 98.3454 117.705 98.3454 117.705 98.3454V87.44C117.705 87.44 122.974 87.44 122.982 87.44C123.676 87.44 124.493 87.6156 124.501 87.6156C126.767 88.1073 128.734 90.3376 128.751 92.8663V92.9102V92.9015ZM126.161 78.8C126.135 81.4868 123.834 83.998 121.384 84.0068C121.349 84.0068 117.714 84.0244 117.714 84.0244V73.4702C117.714 73.4702 118.364 73.4263 119.093 73.4263C119.892 73.4263 120.972 73.4615 122.025 73.6195C124.106 73.9444 126.135 76.2449 126.161 78.7034V78.7912V78.8ZM134.827 93.2966V93.2439C134.827 89.3805 132.053 86.4741 128.014 85.2273L127.276 84.999L127.961 84.6127C130.332 83.2429 131.587 81.241 131.596 78.4927V78.3873C131.596 76.3502 130.788 74.278 129.076 72.7239C127.381 71.1873 124.818 70.1688 121.332 70.1424H112.174V101.884H122.903C127.021 101.884 130.007 100.751 131.965 99.0917C133.905 97.4498 134.819 95.3073 134.836 93.3141M139.358 85.9034H173.031V82.8215H166.894V70.0371H143.608L144.749 73.1102H161.871V82.8215H138.243L139.358 85.9034ZM197.906 74.9629C197.906 76.9298 196.019 78.5454 193.665 78.5454C191.312 78.5454 189.424 76.921 189.424 74.9629C189.424 72.9961 191.312 71.3805 193.665 71.3805C196.019 71.3805 197.906 73.0049 197.906 74.9629ZM202.56 74.9629C202.56 71.0995 198.565 68.0088 193.674 68C188.783 68 184.788 71.0907 184.788 74.9629C184.788 78.8263 188.792 81.9171 193.674 81.9171C198.565 81.9171 202.56 78.8263 202.56 74.9629ZM198.091 95.7551C198.091 97.8098 196.124 99.4956 193.665 99.4956C191.207 99.4956 189.249 97.8098 189.24 95.7551C189.24 93.7005 191.207 92.0146 193.665 92.0146C196.124 92.0146 198.082 93.7005 198.091 95.7551ZM197.195 89.0644C196.106 88.7132 194.912 88.5112 193.665 88.5112C192.419 88.5112 191.224 88.7044 190.136 89.0644V85.9034H197.195V89.0644ZM201.252 85.9034H210.638V82.839H176.728L177.843 85.9034H186.088V91.6107C185.043 92.7785 184.42 94.2098 184.42 95.7551C184.42 99.7766 188.581 102.99 193.674 102.999C198.767 102.999 202.92 99.7766 202.929 95.7551C202.929 94.2098 202.305 92.7873 201.26 91.6107V85.9034H201.252ZM226.838 81.3902C226.724 80.9337 226.689 79.5288 226.689 77.9746C226.689 76.4293 226.724 74.7171 226.759 73.5756H233.95V70.4673H214.045L215.195 73.5756H222.026C222.053 74.7171 222.097 76.4293 222.097 77.9746C222.097 79.5288 222.061 80.9249 221.947 81.3815C221.157 84.7093 218.953 87.001 216.951 88.4673C214.94 89.9249 213.018 90.601 213.018 90.601L214.326 93.2263L214.414 93.2088C220.946 91.8478 223.739 87.5805 224.397 86.3863C225.064 87.5805 227.848 91.8478 234.381 93.2088L234.468 93.2263L235.785 90.601C235.785 90.601 233.854 89.9337 231.852 88.4673C229.841 87.001 227.646 84.7093 226.856 81.3815M238.823 102.016H243.855V69.2644H238.823V102.016ZM278.353 84.481L279.661 81.8644L279.521 81.8293C279.521 81.8293 277.15 81.2761 274.499 79.8712C271.891 78.4927 269.037 76.2888 267.922 73.0137H278.09V69.9405H252.565L253.715 73.0137H262.794C261.679 76.2888 258.825 78.4927 256.218 79.8712C253.575 81.2761 251.204 81.8293 251.195 81.8293L251.055 81.8644L252.363 84.481H252.442C259.572 84.0068 264.34 78.8351 265.358 77.6322C266.377 78.8351 271.144 84.0068 278.274 84.481H278.353ZM282.708 90.9698V87.6244H247.973L249.123 90.9698H262.891V102.016H267.948V90.9698H282.708Z" fill="#021D49"/>
</svg>
