<svg width="404" height="170" viewBox="0 0 404 170" fill="none" xmlns="http://www.w3.org/2000/svg">
    <g clip-path="url(#clip0_838_56347)">
        <path d="M209.589 80.3123V99.6971C209.589 100.185 209.875 100.429 210.332 100.429H213.986C214.434 100.429 214.681 100.185 214.681 99.6971V80.3498C214.681 79.8617 214.472 79.58 213.986 79.58H210.332C209.799 79.58 209.589 79.8617 209.589 80.3123ZM108.851 80.3123V99.6971C108.851 100.185 109.137 100.429 109.594 100.429H113.248C113.696 100.429 113.943 100.185 113.943 99.6971V80.3498C113.943 79.8617 113.734 79.58 113.248 79.58H109.594C109.061 79.58 108.851 79.8617 108.851 80.3123ZM50.9402 98.6645C52.5391 97.0405 53.4622 94.628 53.4622 91.3424V72.1359H47.9709V91.2579V91.333C47.9709 93.3137 47.4665 94.6467 46.648 95.4822C45.8391 96.3083 44.7637 96.5993 43.6787 96.6087H43.6216C41.4517 96.6087 39.7482 95.7732 38.3397 94.2337L35.3228 97.2846C37.1786 99.4249 39.8814 101.18 43.9547 101.18C46.905 101.18 49.3128 100.317 50.9402 98.6551M74.4283 92.2342C74.4283 94.7312 72.5249 96.4679 70.3645 96.8809C69.7174 97.0124 69.1844 97.0311 68.9179 97.0311C68.6514 97.0311 63.8929 97.0311 63.8929 97.0311V87.4185C63.8929 87.4185 68.9179 87.4185 68.9274 87.4185C69.5936 87.4185 70.3645 87.5781 70.374 87.5781C72.5344 88.0099 74.4093 89.9812 74.4283 92.206V92.2436V92.2342ZM71.9539 79.7866C71.9253 82.1522 69.7364 84.3676 67.3952 84.377C67.3571 84.377 63.8929 84.3958 63.8929 84.3958V75.0929C63.8929 75.0929 64.5115 75.0553 65.2063 75.0553C65.9676 75.0553 67.005 75.0835 68.0043 75.2243C69.9934 75.5059 71.9253 77.543 71.9443 79.7115V79.7866H71.9539ZM80.2147 92.5721V92.5252C80.2147 89.1176 77.5689 86.5548 73.7145 85.4565L73.0103 85.25L73.6574 84.9121C75.9225 83.7011 77.1121 81.9363 77.1216 79.5143V79.4205C77.1216 77.6275 76.3507 75.7969 74.7138 74.4264C73.0959 73.0746 70.65 72.1734 67.3381 72.1453H58.6014V100.138H68.8323C72.7628 100.138 75.6084 99.1339 77.4737 97.6789C79.3201 96.2332 80.1956 94.3463 80.2147 92.5815M105.844 76.0598V73.6285C105.844 73.1028 105.559 72.8963 105.102 72.8963H90.455C89.9601 72.8963 89.7127 73.1779 89.7127 73.6285V99.6878C89.7127 100.176 89.9601 100.42 90.455 100.42H94.3951C94.8899 100.42 95.1374 100.176 95.1374 99.6878V88.8454C95.1374 88.4793 95.3468 88.3572 95.6323 88.3572H103.227C103.722 88.3572 103.969 88.1131 103.969 87.5875V85.2031C103.969 84.6774 103.722 84.4333 103.227 84.4333H95.6323C95.3468 84.4333 95.1374 84.2737 95.1374 83.9452V77.2708C95.1374 76.9516 95.2611 76.7826 95.5847 76.7826H105.102C105.597 76.7826 105.844 76.5761 105.844 76.0504M113.943 75.1211C114.086 74.9802 114.152 74.8019 114.152 74.6141C114.152 74.4358 114.095 74.248 113.953 74.1072L111.906 72.0983C111.764 71.9575 111.583 71.8918 111.392 71.8918C111.212 71.8918 111.021 71.9575 110.879 72.0983L108.823 74.126C108.69 74.2668 108.623 74.4358 108.623 74.6141C108.623 74.7925 108.69 74.9615 108.823 75.1023L110.879 77.1299C111.021 77.2708 111.202 77.3365 111.383 77.3365C111.564 77.3365 111.754 77.2708 111.887 77.1299L113.924 75.1211H113.943ZM137.869 99.6971V87.2777C137.869 84.2831 137.498 82.5465 136.232 81.2885C134.833 79.9086 133.11 79.2609 130.408 79.2609C127.286 79.2609 125.973 80.3967 124.707 80.3967C124.298 80.3967 124.26 80.2747 124.26 80.1151C124.26 79.796 124.098 79.5894 123.689 79.5894H120.158C119.71 79.5894 119.415 79.8335 119.415 80.3216V99.7065C119.415 100.195 119.663 100.439 120.158 100.439H123.812C124.307 100.439 124.507 100.195 124.507 99.7065V85.3439C124.507 83.5603 126.724 82.9595 128.647 82.9595C130.16 82.9595 131.312 83.4007 132.054 84.3394C132.587 85.0716 132.796 86.3202 132.796 87.7001V99.7159C132.796 100.157 133.006 100.448 133.491 100.448H137.146C137.641 100.448 137.888 100.167 137.888 99.7159M154.657 94.9659C154.657 96.4585 152.972 97.2283 150.593 97.2283C148.499 97.2283 147.186 96.4585 147.186 94.3933C147.186 92.5721 148.214 91.7179 150.26 91.0326L153.382 89.9812C153.915 89.7747 154.162 89.7372 154.324 89.7372C154.533 89.7372 154.647 89.8592 154.647 90.1408V94.9565L154.657 94.9659ZM159.663 99.6971V86.3014C159.663 83.5509 159.254 82.2554 158.064 81.082C156.836 79.9086 154.743 79.2609 151.459 79.2609C148.709 79.2609 146.244 79.627 144.483 80.3498C143.579 80.7159 143.379 81.0351 143.379 81.5608V83.8701C143.379 84.2362 143.541 84.5178 143.95 84.5178C144.769 84.5178 146.292 82.7811 150.803 82.7811C153.591 82.7811 154.657 83.5133 154.657 84.7619V85.4096C154.657 86.0573 154.41 86.3014 153.382 86.6206L148.499 88.0756C143.741 89.4931 141.933 91.2298 141.933 94.7969C141.933 97.6695 143.246 100.749 148.909 100.749C152.106 100.749 153.582 99.6127 154.533 99.6127C154.819 99.6127 154.943 99.7347 154.943 99.9788C154.943 100.223 155.104 100.42 155.437 100.42H158.921C159.454 100.42 159.663 100.176 159.663 99.6878M183.437 99.6971V87.2777C183.437 84.2831 183.065 82.5465 181.8 81.2885C180.401 79.9086 178.678 79.2609 175.975 79.2609C172.854 79.2609 171.54 80.3967 170.274 80.3967C169.865 80.3967 169.827 80.2747 169.827 80.1151C169.827 79.796 169.665 79.5894 169.256 79.5894H165.725C165.268 79.5894 164.983 79.8335 164.983 80.3216V99.7065C164.983 100.195 165.23 100.439 165.725 100.439H169.38C169.875 100.439 170.075 100.195 170.075 99.7065V85.3439C170.075 83.5603 172.292 82.9595 174.215 82.9595C175.737 82.9595 176.879 83.4007 177.622 84.3394C178.155 85.0716 178.364 86.3202 178.364 87.7001V99.7159C178.364 100.157 178.573 100.448 179.059 100.448H182.713C183.208 100.448 183.456 100.167 183.456 99.7159M205.107 98.6082V96.2989C205.107 95.8953 204.945 95.6136 204.536 95.6136C203.755 95.6136 202.528 97.0687 198.959 97.0687C195.181 97.0687 192.849 94.8063 192.849 90.1502C192.849 85.7757 194.857 82.9501 199.254 82.9501C202.737 82.9501 203.603 84.3676 204.545 84.3676C204.917 84.3676 205.116 84.208 205.116 83.7199V81.373C205.116 80.8098 205.031 80.5657 204.374 80.2372C203.432 79.749 201.053 79.2703 198.797 79.2703C191.164 79.2703 187.51 83.6448 187.51 90.2347C187.51 96.8246 191.164 100.758 198.264 100.758C200.558 100.758 203.108 100.392 204.336 99.7441C204.869 99.5 205.116 99.1808 205.116 98.6082M214.681 75.1211C214.824 74.9802 214.89 74.8019 214.89 74.6141C214.89 74.4358 214.833 74.248 214.691 74.1072L212.644 72.0983C212.502 71.9575 212.321 71.8918 212.13 71.8918C211.95 71.8918 211.759 71.9575 211.626 72.0983L209.57 74.126C209.437 74.2668 209.37 74.4358 209.37 74.6141C209.37 74.7925 209.437 74.9615 209.561 75.1023L211.626 77.1299C211.769 77.2708 211.95 77.3365 212.13 77.3365C212.311 77.3365 212.502 77.2708 212.635 77.1299L214.671 75.1211H214.681ZM231.631 94.9659C231.631 96.4585 229.946 97.2283 227.567 97.2283C225.473 97.2283 224.16 96.4585 224.16 94.3933C224.16 92.5721 225.188 91.7179 227.234 91.0326L230.356 89.9812C230.889 89.7747 231.136 89.7372 231.298 89.7372C231.507 89.7372 231.631 89.8592 231.631 90.1408V94.9565V94.9659ZM236.637 99.6971V86.3014C236.637 83.5509 236.228 82.2554 235.038 81.082C233.81 79.9086 231.717 79.2609 228.433 79.2609C225.683 79.2609 223.218 79.627 221.457 80.3498C220.553 80.7159 220.353 81.0351 220.353 81.5608V83.8701C220.353 84.2362 220.515 84.5178 220.924 84.5178C221.743 84.5178 223.265 82.7811 227.776 82.7811C230.565 82.7811 231.631 83.5133 231.631 84.7619V85.4096C231.631 86.0573 231.383 86.3014 230.356 86.6206L225.473 88.0756C220.715 89.4931 218.907 91.2298 218.907 94.7969C218.907 97.6695 220.22 100.749 225.883 100.749C229.08 100.749 230.555 99.6127 231.507 99.6127C231.793 99.6127 231.916 99.7347 231.916 99.9788C231.916 100.223 232.078 100.42 232.411 100.42H235.894C236.427 100.42 236.637 100.176 236.637 99.6878M247.191 99.6971V72.0608C247.191 71.5351 246.944 71.291 246.496 71.291H242.842C242.395 71.291 242.1 71.5351 242.1 72.0232V99.7065C242.1 100.195 242.385 100.439 242.842 100.439H246.496C246.944 100.439 247.191 100.195 247.191 99.7065M281.243 98.2796V88.4417C281.243 87.916 280.958 87.7095 280.501 87.7095H276.685C276.237 87.7095 275.942 87.916 275.942 88.4417V95.9328C275.942 96.5805 275.247 96.9466 272.992 96.9466C266.673 96.9466 263.475 93.5484 263.475 87.2307C263.475 80.2747 267.006 76.4634 273.525 76.4634C278.036 76.4634 279.882 78.2846 280.625 78.2846C281.072 78.2846 281.243 78.0781 281.243 77.6369V75.0084C281.243 74.3982 281.081 74.1166 279.93 73.6754C278.245 73.0277 275.866 72.5395 272.668 72.5395C263.313 72.5395 257.898 78.0875 257.898 87.2307C257.898 96.374 263.599 100.749 272.63 100.749C275.542 100.749 278.007 100.26 279.444 99.7816C281.005 99.2935 281.253 98.8898 281.253 98.289M298.897 83.1848V80.4718C298.897 79.7866 298.612 79.2609 296.927 79.2609C294.053 79.2609 292.863 80.838 291.636 80.838C291.388 80.838 291.179 80.6314 291.179 80.4343V80.0682C291.179 79.749 291.017 79.58 290.646 79.58H287.077C286.582 79.58 286.382 79.8241 286.382 80.3123V99.6971C286.382 100.185 286.668 100.429 287.077 100.429H290.808C291.255 100.429 291.465 100.185 291.465 99.6971V86.583C291.465 84.3958 292.864 83.4664 295.195 83.4664C297.413 83.4664 297.66 83.7856 298.317 83.7856C298.726 83.7856 298.888 83.5415 298.888 83.1754M316.304 89.8592C316.304 95.2006 314.496 97.2658 311.089 97.2658C307.682 97.2658 305.835 95.2475 305.835 90.1408C305.835 85.0341 307.596 82.7717 311.051 82.7717C314.505 82.7717 316.304 84.7525 316.304 89.8498M321.634 89.9437C321.634 83.4664 317.979 79.2609 311.089 79.2609C304.198 79.2609 300.506 83.8325 300.506 90.0657C300.506 96.2989 304.113 100.786 311.051 100.786C317.989 100.786 321.634 96.1769 321.634 89.9437ZM344.008 99.6971V80.3123C344.008 79.8711 343.761 79.58 343.313 79.58H339.583C339.135 79.58 338.926 79.8617 338.926 80.3123V94.5529C338.926 95.6418 338.431 96.2144 337.451 96.6181C336.756 96.8997 335.728 97.0593 334.948 97.0593C331.75 97.0593 330.637 95.7263 330.637 92.7317V80.3123C330.637 79.8711 330.427 79.58 329.98 79.58H326.249C325.754 79.58 325.555 79.8617 325.555 80.3123V92.0464C325.555 95.4447 325.716 97.2283 327.115 98.7209C328.429 100.176 330.599 100.749 332.978 100.749C336.337 100.749 337.413 99.6127 338.764 99.6127C339.097 99.6127 339.173 99.7347 339.173 99.8943C339.173 100.213 339.297 100.42 339.744 100.42H343.275C343.77 100.42 344.018 100.176 344.018 99.6878M364.241 89.8216C364.241 95.2006 361.653 97.1438 358.246 97.1438C356.485 97.1438 354.391 96.5336 354.391 94.8345V85.2876C354.391 83.504 356.485 82.9032 358.246 82.9032C362.509 82.9032 364.241 85.5316 364.241 89.8216ZM369.618 89.7372C369.618 83.2599 366.088 79.2515 359.94 79.2515C356.818 79.2515 355.467 80.3874 354.524 80.3874C354.201 80.3874 354.115 80.3029 354.115 80.0682C354.115 79.7866 353.992 79.58 353.544 79.58H350.051C349.557 79.58 349.309 79.8617 349.309 80.3123V108.277C349.309 108.765 349.557 109 350.004 109H353.735C354.191 109 354.391 108.756 354.391 108.277V100.185C354.391 99.8192 354.553 99.6596 354.8 99.6596C355.21 99.6596 356.685 100.795 359.645 100.795C365.717 100.795 369.618 96.7871 369.618 89.7465" fill="#021D49"/>
    </g>
    <defs>
        <clipPath id="clip0_838_56347">
            <rect width="335" height="38" fill="white" transform="translate(35 71)"/>
        </clipPath>
    </defs>
</svg>
