<svg viewBox="152.986 31.9999 63.022 62.849" fill="none" xmlns="http://www.w3.org/2000/svg">
  <path d="M152.986 31.9999V94.8488H216.008V94.7799L200.251 79.1347L211.943 67.4829L216.008 71.3541V31.9999H152.986Z" fill="#0091D0"/>
  <path d="M152.986 31.9999V63.4205L168.744 47.714L152.986 31.9999Z" fill="#009CD8"/>
  <path d="M152.986 31.9999L168.744 47.714L184.501 31.9999H152.986Z" fill="#0091D0"/>
  <path d="M152.986 63.4205H184.501L168.744 47.714L152.986 63.4205Z" fill="#0091D0"/>
  <path d="M184.501 31.9999L168.743 47.714L184.501 63.4205V31.9999Z" fill="#0082C9"/>
  <path d="M184.5 31.9999V63.4205L200.25 47.714L184.5 31.9999Z" fill="#0070BB"/>
  <path d="M184.5 31.9999L200.25 47.714L216.007 31.9999H184.5Z" fill="#0060AF"/>
  <path d="M184.5 63.4205H216.007L200.257 47.714L184.5 63.4205Z" fill="#004C98"/>
  <path d="M216.006 31.9999L200.257 47.714L216.006 63.4205V31.9999Z" fill="#00529C"/>
  <path d="M152.986 63.4204V94.8487L168.744 79.1346L152.986 63.4204Z" fill="#0070BB"/>
  <path d="M184.501 63.4204H152.986L168.744 79.1346L184.501 63.4204Z" fill="#0082C9"/>
  <path d="M152.986 94.8487H184.501L168.744 79.1345L152.986 94.8487Z" fill="#0060AF"/>
  <path d="M168.743 79.1346L184.501 94.8487V63.4204L168.743 79.1346Z" fill="#00529C"/>
  <path d="M184.5 63.4204V94.8487L200.257 79.1346L184.5 63.4204Z" fill="#004C98"/>
  <path d="M216.007 63.4204H184.5L200.257 79.1346L216.007 63.4204Z" fill="#1C378A"/>
  <path d="M216.007 63.4204L211.941 67.4828L216.007 71.354V63.4204Z" fill="#1C378A"/>
  <path d="M184.5 94.8487H216.007V94.7798L200.257 79.1345L184.5 94.8487Z" fill="#1C378A"/>
  <path d="M195.817 52.1359L216.008 71.3539V94.7798L200.258 79.1345L195.893 74.7814L176.384 93.9382L165.138 82.7302L195.817 52.1359Z" fill="#fff"/>
</svg>
