<svg xmlns="http://www.w3.org/2000/svg" width="1536" height="1024" viewBox="0 0 1536 1024">
<defs>
  <linearGradient id="blueGrad" x1="0" y1="0" x2="1" y2="1">
    <stop offset="0" stop-color="#80E3FF"/>
    <stop offset="0.45" stop-color="#155BFF"/>
    <stop offset="1" stop-color="#0032A8"/>
  </linearGradient>
  <linearGradient id="cyanGrad" x1="0" y1="0" x2="1" y2="0">
    <stop offset="0" stop-color="#00D2E5"/><stop offset="1" stop-color="#1565FF"/>
  </linearGradient>
  <linearGradient id="navyDeep" x1="0" y1="0" x2="1" y2="1">
    <stop offset="0" stop-color="#061A40"/><stop offset="1" stop-color="#0B2B67"/>
  </linearGradient>
  <linearGradient id="lightBg" x1="0" y1="0" x2="1" y2="1">
    <stop offset="0" stop-color="#FFFFFF"/><stop offset="1" stop-color="#F3F7FC"/>
  </linearGradient>
  <filter id="shadow" x="-20%" y="-20%" width="140%" height="140%"><feDropShadow dx="0" dy="8" stdDeviation="8" flood-color="#061A40" flood-opacity=".18"/></filter>
</defs>
<rect width="1536" height="1024" fill="url(#lightBg)"/>
<g opacity=".25"><path d="M58 745 L205 560 L352 745" fill="none" stroke="#DDE8F6" stroke-width="70"/><path d="M197 746 L350 560" stroke="#DDE8F6" stroke-width="70"/></g>

<!-- Vertical/horizontal grid -->
<path d="M450 0 V735 M990 0 V735 M0 735 H1536 M450 430 H1536 M700 430 V735 M1015 735 V1024" stroke="#D9E2EF" stroke-width="1"/>

<!-- Left hero -->
<text x="40" y="54" font-family="'JB Corporate','Noto Sans CJK KR','Pretendard','Arial',sans-serif" font-size="20" font-weight="800" fill="#061A40" text-anchor="start" letter-spacing="0">JBAX</text><text x="100" y="54" font-family="'JB Corporate','Noto Sans CJK KR','Pretendard','Arial',sans-serif" font-size="18" font-weight="500" fill="#263B61" text-anchor="start" letter-spacing="0">CI DASHBOARD</text>
<g transform="translate(38,240) scale(0.86)"><text x="0" y="0" font-family="Arial Black, 'JB Corporate','Noto Sans CJK KR','Pretendard','Arial',sans-serif" font-size="120" font-weight="900" fill="#061A40" letter-spacing="-5">JB</text><path d="M220 0 L270 -112 L320 0 L292 0 L270 -54 L246 0 Z" fill="#061A40"/><path d="M274 -8 L360 -112" stroke="url(#blueGrad)" stroke-width="22" stroke-linecap="square"/><path d="M344 -112 L396 0" stroke="#061A40" stroke-width="24" stroke-linecap="square"/><path d="M394 -112 L340 0" stroke="#061A40" stroke-width="24" stroke-linecap="square" opacity=".95"/><path d="M348 -64 L392 -64" stroke="url(#cyanGrad)" stroke-width="14" stroke-linecap="round" opacity=".95"/></g>
<text x="40" y="335" font-family="'JB Corporate','Noto Sans CJK KR','Pretendard','Arial',sans-serif" font-size="42" font-weight="900" fill="#061A40" text-anchor="start" letter-spacing="0">금융의 신뢰를,</text>
<text x="40" y="386" font-family="'JB Corporate','Noto Sans CJK KR','Pretendard','Arial',sans-serif" font-size="42" font-weight="900" fill="#061A40" text-anchor="start" letter-spacing="0">AX의 속도로.</text>
<path d="M40 425 H82" stroke="#061A40" stroke-width="2"/>
<text x="40" y="465.0" font-family="'JB Corporate','Noto Sans CJK KR','Pretendard','Arial',sans-serif" font-size="18" font-weight="500" fill="#142845" text-anchor="start" letter-spacing="0">JBAX는 JB금융지주의 신뢰와 AI 기반</text><text x="40" y="492.9" font-family="'JB Corporate','Noto Sans CJK KR','Pretendard','Arial',sans-serif" font-size="18" font-weight="500" fill="#142845" text-anchor="start" letter-spacing="0">AX 혁신이 만나는 새로운 변화의 이름입니다.</text>
<text x="40" y="535.0" font-family="'JB Corporate','Noto Sans CJK KR','Pretendard','Arial',sans-serif" font-size="18" font-weight="500" fill="#142845" text-anchor="start" letter-spacing="0">우리는 사람, 데이터, 기술을 연결해</text><text x="40" y="562.9" font-family="'JB Corporate','Noto Sans CJK KR','Pretendard','Arial',sans-serif" font-size="18" font-weight="500" fill="#142845" text-anchor="start" letter-spacing="0">더 빠르고, 더 똑똑하고, 더 따뜻한 금융을 만들어갑니다.</text>

<!-- 01 Concept -->
<text x="485" y="55" font-family="'JB Corporate','Noto Sans CJK KR','Pretendard','Arial',sans-serif" font-size="18" font-weight="800" fill="#061A40" text-anchor="start" letter-spacing="0">01. CI 컨셉</text>
<text x="485" y="104" font-family="'JB Corporate','Noto Sans CJK KR','Pretendard','Arial',sans-serif" font-size="34" font-weight="900" fill="#061A40" text-anchor="start" letter-spacing="0">연결 · 전환 · 가속</text>
<text x="485" y="146.0" font-family="'JB Corporate','Noto Sans CJK KR','Pretendard','Arial',sans-serif" font-size="16" font-weight="500" fill="#142845" text-anchor="start" letter-spacing="0">JB의 신뢰(Trust) 위에 AI와 데이터의 연결(Connect)이 만나,</text><text x="485" y="170.8" font-family="'JB Corporate','Noto Sans CJK KR','Pretendard','Arial',sans-serif" font-size="16" font-weight="500" fill="#142845" text-anchor="start" letter-spacing="0">새로운 가치로 전환(Transform)되어 더 빠르게 성장(Accelerate)하는</text><text x="485" y="195.6" font-family="'JB Corporate','Noto Sans CJK KR','Pretendard','Arial',sans-serif" font-size="16" font-weight="500" fill="#142845" text-anchor="start" letter-spacing="0">JB금융그룹의 AX 혁신을 상징합니다.</text>
<text x="500" y="260" font-family="'JB Corporate','Noto Sans CJK KR','Pretendard','Arial',sans-serif" font-size="15" font-weight="800" fill="#061A40" text-anchor="start" letter-spacing="0">신뢰의 기반</text><text x="500" y="288.0" font-family="'JB Corporate','Noto Sans CJK KR','Pretendard','Arial',sans-serif" font-size="13" font-weight="500" fill="#142845" text-anchor="start" letter-spacing="0">JB의 금융 철학</text><text x="500" y="308.15" font-family="'JB Corporate','Noto Sans CJK KR','Pretendard','Arial',sans-serif" font-size="13" font-weight="500" fill="#142845" text-anchor="start" letter-spacing="0">안정과 신뢰</text>
<g transform="translate(515,330) scale(1.0)"><rect x="0" y="0" width="70" height="70" rx="8" fill="url(#navyDeep)"/><path d="M16 52 L35 29 L54 52" fill="none" stroke="white" stroke-width="12" stroke-linecap="square" stroke-linejoin="miter"/><path d="M48 52 L62 38 L62 62 Z" fill="url(#blueGrad)" opacity=".9"/></g><text x="610" y="374" font-family="'JB Corporate','Noto Sans CJK KR','Pretendard','Arial',sans-serif" font-size="28" font-weight="700" fill="#50627E" text-anchor="middle" letter-spacing="0">+</text>
<text x="645" y="260" font-family="'JB Corporate','Noto Sans CJK KR','Pretendard','Arial',sans-serif" font-size="15" font-weight="800" fill="#061A40" text-anchor="start" letter-spacing="0">연결과 지능</text><text x="645" y="288.0" font-family="'JB Corporate','Noto Sans CJK KR','Pretendard','Arial',sans-serif" font-size="13" font-weight="500" fill="#142845" text-anchor="start" letter-spacing="0">AI · 데이터 연결</text><text x="645" y="308.15" font-family="'JB Corporate','Noto Sans CJK KR','Pretendard','Arial',sans-serif" font-size="13" font-weight="500" fill="#142845" text-anchor="start" letter-spacing="0">지능형 전환</text>
<rect x="635" y="330" width="70" height="70" fill="white" stroke="#D9E2EF"/><g transform="translate(650,335) scale(0.8)"><path d="M0 70 L44 0" stroke="url(#blueGrad)" stroke-width="15" stroke-linecap="square"/><path d="M4 72 L20 50" stroke="url(#cyanGrad)" stroke-width="9" opacity=".5"/></g><text x="730" y="374" font-family="'JB Corporate','Noto Sans CJK KR','Pretendard','Arial',sans-serif" font-size="28" font-weight="700" fill="#50627E" text-anchor="middle" letter-spacing="0">+</text>
<text x="765" y="260" font-family="'JB Corporate','Noto Sans CJK KR','Pretendard','Arial',sans-serif" font-size="15" font-weight="800" fill="#061A40" text-anchor="start" letter-spacing="0">전환의 순간</text><text x="765" y="288.0" font-family="'JB Corporate','Noto Sans CJK KR','Pretendard','Arial',sans-serif" font-size="13" font-weight="500" fill="#142845" text-anchor="start" letter-spacing="0">기존에서 미래로</text><text x="765" y="308.15" font-family="'JB Corporate','Noto Sans CJK KR','Pretendard','Arial',sans-serif" font-size="13" font-weight="500" fill="#142845" text-anchor="start" letter-spacing="0">변화의 변곡</text>
<rect x="755" y="330" width="70" height="70" fill="white" stroke="#D9E2EF"/><g transform="translate(766,333) scale(.65)"><g transform="translate(0,0) scale(1)"><rect x="0" y="0" width="128" height="128" rx="22" fill="url(#navyDeep)"/><path d="M34 94 L62 34 L90 94 L76 94 L62 62 L48 94 Z" fill="white" opacity=".97"/><path d="M58 94 L96 34" stroke="url(#blueGrad)" stroke-width="18" stroke-linecap="square"/><path d="M76 72 L100 72" stroke="url(#cyanGrad)" stroke-width="10" stroke-linecap="round" opacity=".9"/><path d="M0 128 L128 0" stroke="#0F2B6F" stroke-width="16" opacity=".18"/></g></g><text x="850" y="374" font-family="'JB Corporate','Noto Sans CJK KR','Pretendard','Arial',sans-serif" font-size="28" font-weight="700" fill="#50627E" text-anchor="middle" letter-spacing="0">+</text>
<text x="890" y="260" font-family="'JB Corporate','Noto Sans CJK KR','Pretendard','Arial',sans-serif" font-size="15" font-weight="800" fill="#061A40" text-anchor="start" letter-spacing="0">성장과 가속</text><text x="890" y="288.0" font-family="'JB Corporate','Noto Sans CJK KR','Pretendard','Arial',sans-serif" font-size="13" font-weight="500" fill="#142845" text-anchor="start" letter-spacing="0">더 빠르게, 더 크게</text><text x="890" y="308.15" font-family="'JB Corporate','Noto Sans CJK KR','Pretendard','Arial',sans-serif" font-size="13" font-weight="500" fill="#142845" text-anchor="start" letter-spacing="0">미래 금융으로</text>
<g transform="translate(887,330) scale(0.82)"><path d="M6 0 L68 70" stroke="url(#blueGrad)" stroke-width="14"/><path d="M68 0 L6 70" stroke="url(#cyanGrad)" stroke-width="14"/><path d="M54 0 L72 0 L18 70 L0 70 Z" fill="#061A40" opacity=".9"/></g>

<!-- 02 Logo system -->
<text x="1035" y="55" font-family="'JB Corporate','Noto Sans CJK KR','Pretendard','Arial',sans-serif" font-size="18" font-weight="800" fill="#061A40" text-anchor="start" letter-spacing="0">02. 로고 시스템</text>
<text x="1040" y="115" font-family="'JB Corporate','Noto Sans CJK KR','Pretendard','Arial',sans-serif" font-size="15" font-weight="800" fill="#061A40" text-anchor="start" letter-spacing="0">기본형 (가로)</text>
<g transform="translate(1060,210) scale(0.55)"><text x="0" y="0" font-family="Arial Black, 'JB Corporate','Noto Sans CJK KR','Pretendard','Arial',sans-serif" font-size="120" font-weight="900" fill="#061A40" letter-spacing="-5">JB</text><path d="M220 0 L270 -112 L320 0 L292 0 L270 -54 L246 0 Z" fill="#061A40"/><path d="M274 -8 L360 -112" stroke="url(#blueGrad)" stroke-width="22" stroke-linecap="square"/><path d="M344 -112 L396 0" stroke="#061A40" stroke-width="24" stroke-linecap="square"/><path d="M394 -112 L340 0" stroke="#061A40" stroke-width="24" stroke-linecap="square" opacity=".95"/><path d="M348 -64 L392 -64" stroke="url(#cyanGrad)" stroke-width="14" stroke-linecap="round" opacity=".95"/></g>
<path d="M1320 143 V214" stroke="#D9E2EF" stroke-width="2"/>
<text x="1360" y="180" font-family="'JB Corporate','Noto Sans CJK KR','Pretendard','Arial',sans-serif" font-size="30" font-weight="800" fill="#061A40" text-anchor="start" letter-spacing="0">JB금융지주</text>
<text x="1040" y="300" font-family="'JB Corporate','Noto Sans CJK KR','Pretendard','Arial',sans-serif" font-size="15" font-weight="800" fill="#061A40" text-anchor="start" letter-spacing="0">세로형</text>
<g transform="translate(1080,385) scale(0.45)"><text x="0" y="0" font-family="Arial Black, 'JB Corporate','Noto Sans CJK KR','Pretendard','Arial',sans-serif" font-size="120" font-weight="900" fill="#061A40" letter-spacing="-5">JB</text><path d="M220 0 L270 -112 L320 0 L292 0 L270 -54 L246 0 Z" fill="#061A40"/><path d="M274 -8 L360 -112" stroke="url(#blueGrad)" stroke-width="22" stroke-linecap="square"/><path d="M344 -112 L396 0" stroke="#061A40" stroke-width="24" stroke-linecap="square"/><path d="M394 -112 L340 0" stroke="#061A40" stroke-width="24" stroke-linecap="square" opacity=".95"/><path d="M348 -64 L392 -64" stroke="url(#cyanGrad)" stroke-width="14" stroke-linecap="round" opacity=".95"/></g>
<text x="1135" y="423" font-family="'JB Corporate','Noto Sans CJK KR','Pretendard','Arial',sans-serif" font-size="24" font-weight="800" fill="#142845" text-anchor="start" letter-spacing="0">JB금융지주</text>

<!-- 03 Color -->
<text x="485" y="486" font-family="'JB Corporate','Noto Sans CJK KR','Pretendard','Arial',sans-serif" font-size="18" font-weight="800" fill="#061A40" text-anchor="start" letter-spacing="0">03. 색상 체계</text>
<rect x="490" y="535" width="48" height="48" rx="2" fill="#061A40"/>
<rect x="555" y="535" width="48" height="48" rx="2" fill="#155BFF"/>
<rect x="620" y="535" width="48" height="48" rx="2" fill="#00B8D9"/>
<rect x="685" y="535" width="48" height="48" rx="2" fill="#F6B23C"/>
<text x="490" y="620" font-family="'JB Corporate','Noto Sans CJK KR','Pretendard','Arial',sans-serif" font-size="11" font-weight="800" fill="#061A40" text-anchor="start" letter-spacing="0">JB NAVY</text><text x="490" y="638" font-family="'JB Corporate','Noto Sans CJK KR','Pretendard','Arial',sans-serif" font-size="10" font-weight="500" fill="#2E405C" text-anchor="start" letter-spacing="0">#061A40</text>
<text x="555" y="620" font-family="'JB Corporate','Noto Sans CJK KR','Pretendard','Arial',sans-serif" font-size="11" font-weight="800" fill="#061A40" text-anchor="start" letter-spacing="0">AX BLUE</text><text x="555" y="638" font-family="'JB Corporate','Noto Sans CJK KR','Pretendard','Arial',sans-serif" font-size="10" font-weight="500" fill="#2E405C" text-anchor="start" letter-spacing="0">#1565FF</text>
<text x="620" y="620" font-family="'JB Corporate','Noto Sans CJK KR','Pretendard','Arial',sans-serif" font-size="11" font-weight="800" fill="#061A40" text-anchor="start" letter-spacing="0">DATA CYAN</text><text x="620" y="638" font-family="'JB Corporate','Noto Sans CJK KR','Pretendard','Arial',sans-serif" font-size="10" font-weight="500" fill="#2E405C" text-anchor="start" letter-spacing="0">#00B8D9</text>
<text x="685" y="620" font-family="'JB Corporate','Noto Sans CJK KR','Pretendard','Arial',sans-serif" font-size="11" font-weight="800" fill="#061A40" text-anchor="start" letter-spacing="0">HUMAN GOLD</text><text x="685" y="638" font-family="'JB Corporate','Noto Sans CJK KR','Pretendard','Arial',sans-serif" font-size="10" font-weight="500" fill="#2E405C" text-anchor="start" letter-spacing="0">#F6B23C</text>
<text x="485" y="690.0" font-family="'JB Corporate','Noto Sans CJK KR','Pretendard','Arial',sans-serif" font-size="14" font-weight="500" fill="#142845" text-anchor="start" letter-spacing="0">신뢰 · 혁신 · 연결 · 사람 중심의 금융을</text><text x="485" y="711.7" font-family="'JB Corporate','Noto Sans CJK KR','Pretendard','Arial',sans-serif" font-size="14" font-weight="500" fill="#142845" text-anchor="start" letter-spacing="0">색상으로 표현합니다.</text>

<!-- 04 Typography -->
<text x="740" y="486" font-family="'JB Corporate','Noto Sans CJK KR','Pretendard','Arial',sans-serif" font-size="18" font-weight="800" fill="#061A40" text-anchor="start" letter-spacing="0">04. 타이포그래피</text>
<text x="740" y="532" font-family="'JB Corporate','Noto Sans CJK KR','Pretendard','Arial',sans-serif" font-size="14" font-weight="700" fill="#061A40" text-anchor="start" letter-spacing="0">공식 JB 스타일 한국어 기업 서체</text>
<g transform="translate(785,615)"><text x="0" y="0" font-family="Arial Black, 'JB Corporate','Noto Sans CJK KR','Pretendard','Arial',sans-serif" font-size="78" font-weight="900" fill="#061A40">JB</text><g transform="translate(112,-62) scale(1.05)"><path d="M0 70 L44 0" stroke="url(#blueGrad)" stroke-width="15" stroke-linecap="square"/><path d="M4 72 L20 50" stroke="url(#cyanGrad)" stroke-width="9" opacity=".5"/></g></g>
<text x="740" y="655.0" font-family="'JB Corporate','Noto Sans CJK KR','Pretendard','Arial',sans-serif" font-size="14" font-weight="500" fill="#142845" text-anchor="start" letter-spacing="0">국문 | JB금융그룹 전용 서체 톤</text><text x="740" y="677.4" font-family="'JB Corporate','Noto Sans CJK KR','Pretendard','Arial',sans-serif" font-size="14" font-weight="500" fill="#142845" text-anchor="start" letter-spacing="0">가나다라마바사아자차카타파하</text><text x="740" y="699.8" font-family="'JB Corporate','Noto Sans CJK KR','Pretendard','Arial',sans-serif" font-size="14" font-weight="500" fill="#142845" text-anchor="start" letter-spacing="0">1234567890</text>
<path d="M860 635 H958" stroke="#D9E2EF"/>
<text x="740" y="725.0" font-family="'JB Corporate','Noto Sans CJK KR','Pretendard','Arial',sans-serif" font-size="10.5" font-weight="500" fill="#142845" text-anchor="start" letter-spacing="0">영문 | JB Corporate Typeface 톤</text><text x="740" y="742.85" font-family="'JB Corporate','Noto Sans CJK KR','Pretendard','Arial',sans-serif" font-size="10.5" font-weight="500" fill="#142845" text-anchor="start" letter-spacing="0">ABCDEFGHIJKLMNOPQRSTUVWXYZ</text><text x="740" y="760.7" font-family="'JB Corporate','Noto Sans CJK KR','Pretendard','Arial',sans-serif" font-size="10.5" font-weight="500" fill="#142845" text-anchor="start" letter-spacing="0">abcdefghijklmnopqrstuvwxyz 1234567890</text>

<!-- 05 Symbol -->
<text x="1035" y="486" font-family="'JB Corporate','Noto Sans CJK KR','Pretendard','Arial',sans-serif" font-size="18" font-weight="800" fill="#061A40" text-anchor="start" letter-spacing="0">05. 심볼 응용</text>
<g transform="translate(1052,530) scale(1.25)"><rect x="0" y="0" width="128" height="128" rx="22" fill="url(#navyDeep)"/><path d="M34 94 L62 34 L90 94 L76 94 L62 62 L48 94 Z" fill="white" opacity=".97"/><path d="M58 94 L96 34" stroke="url(#blueGrad)" stroke-width="18" stroke-linecap="square"/><path d="M76 72 L100 72" stroke="url(#cyanGrad)" stroke-width="10" stroke-linecap="round" opacity=".9"/><path d="M0 128 L128 0" stroke="#0F2B6F" stroke-width="16" opacity=".18"/></g>
<text x="1220" y="560" font-family="'JB Corporate','Noto Sans CJK KR','Pretendard','Arial',sans-serif" font-size="16" font-weight="800" fill="#061A40" text-anchor="start" letter-spacing="0">앱 아이콘</text>
<text x="1220" y="590.0" font-family="'JB Corporate','Noto Sans CJK KR','Pretendard','Arial',sans-serif" font-size="15" font-weight="500" fill="#142845" text-anchor="start" letter-spacing="0">연결과 전환, 성장을</text><text x="1220" y="613.25" font-family="'JB Corporate','Noto Sans CJK KR','Pretendard','Arial',sans-serif" font-size="15" font-weight="500" fill="#142845" text-anchor="start" letter-spacing="0">상징하는 JBAX 심볼을</text><text x="1220" y="636.5" font-family="'JB Corporate','Noto Sans CJK KR','Pretendard','Arial',sans-serif" font-size="15" font-weight="500" fill="#142845" text-anchor="start" letter-spacing="0">다양한 디지털 환경에</text><text x="1220" y="659.75" font-family="'JB Corporate','Noto Sans CJK KR','Pretendard','Arial',sans-serif" font-size="15" font-weight="500" fill="#142845" text-anchor="start" letter-spacing="0">적용합니다.</text>
<g transform="translate(1052,680)"><g transform="translate(0,0) scale(0.47)"><rect x="0" y="0" width="128" height="128" rx="22" fill="url(#navyDeep)"/><path d="M34 94 L62 34 L90 94 L76 94 L62 62 L48 94 Z" fill="white" opacity=".97"/><path d="M58 94 L96 34" stroke="url(#blueGrad)" stroke-width="18" stroke-linecap="square"/><path d="M76 72 L100 72" stroke="url(#cyanGrad)" stroke-width="10" stroke-linecap="round" opacity=".9"/><path d="M0 128 L128 0" stroke="#0F2B6F" stroke-width="16" opacity=".18"/></g><rect x="70" y="0" width="48" height="48" rx="10" fill="#061A40"/><g transform="translate(76,6) scale(.28)"><g transform="translate(0,0) scale(1)"><rect x="0" y="0" width="128" height="128" rx="22" fill="url(#navyDeep)"/><path d="M34 94 L62 34 L90 94 L76 94 L62 62 L48 94 Z" fill="white" opacity=".97"/><path d="M58 94 L96 34" stroke="url(#blueGrad)" stroke-width="18" stroke-linecap="square"/><path d="M76 72 L100 72" stroke="url(#cyanGrad)" stroke-width="10" stroke-linecap="round" opacity=".9"/><path d="M0 128 L128 0" stroke="#0F2B6F" stroke-width="16" opacity=".18"/></g></g><rect x="140" y="0" width="48" height="48" rx="10" fill="#155BFF"/><g transform="translate(146,6) scale(.28)"><g transform="translate(0,0) scale(1)"><rect x="0" y="0" width="128" height="128" rx="22" fill="url(#navyDeep)"/><path d="M34 94 L62 34 L90 94 L76 94 L62 62 L48 94 Z" fill="white" opacity=".97"/><path d="M58 94 L96 34" stroke="url(#blueGrad)" stroke-width="18" stroke-linecap="square"/><path d="M76 72 L100 72" stroke="url(#cyanGrad)" stroke-width="10" stroke-linecap="round" opacity=".9"/><path d="M0 128 L128 0" stroke="#0F2B6F" stroke-width="16" opacity=".18"/></g></g><rect x="210" y="0" width="48" height="48" rx="10" fill="#1F1F1F"/><g transform="translate(216,6) scale(.28)"><g transform="translate(0,0) scale(1)"><rect x="0" y="0" width="128" height="128" rx="22" fill="url(#navyDeep)"/><path d="M34 94 L62 34 L90 94 L76 94 L62 62 L48 94 Z" fill="white" opacity=".97"/><path d="M58 94 L96 34" stroke="url(#blueGrad)" stroke-width="18" stroke-linecap="square"/><path d="M76 72 L100 72" stroke="url(#cyanGrad)" stroke-width="10" stroke-linecap="round" opacity=".9"/><path d="M0 128 L128 0" stroke="#0F2B6F" stroke-width="16" opacity=".18"/></g></g></g>

<!-- 06 Applications -->
<text x="35" y="785" font-family="'JB Corporate','Noto Sans CJK KR','Pretendard','Arial',sans-serif" font-size="18" font-weight="800" fill="#061A40" text-anchor="start" letter-spacing="0">06. 응용 시스템</text>
<text x="40" y="835" font-family="'JB Corporate','Noto Sans CJK KR','Pretendard','Arial',sans-serif" font-size="13" font-weight="800" fill="#061A40" text-anchor="start" letter-spacing="0">명함</text>
<rect x="40" y="860" width="205" height="95" rx="2" fill="white" stroke="#D9E2EF" filter="url(#shadow)"/>
<g transform="translate(55,895) scale(0.2)"><text x="0" y="0" font-family="Arial Black, 'JB Corporate','Noto Sans CJK KR','Pretendard','Arial',sans-serif" font-size="120" font-weight="900" fill="#061A40" letter-spacing="-5">JB</text><path d="M220 0 L270 -112 L320 0 L292 0 L270 -54 L246 0 Z" fill="#061A40"/><path d="M274 -8 L360 -112" stroke="url(#blueGrad)" stroke-width="22" stroke-linecap="square"/><path d="M344 -112 L396 0" stroke="#061A40" stroke-width="24" stroke-linecap="square"/><path d="M394 -112 L340 0" stroke="#061A40" stroke-width="24" stroke-linecap="square" opacity=".95"/><path d="M348 -64 L392 -64" stroke="url(#cyanGrad)" stroke-width="14" stroke-linecap="round" opacity=".95"/></g><text x="178" y="878" font-family="'JB Corporate','Noto Sans CJK KR','Pretendard','Arial',sans-serif" font-size="9" font-weight="800" fill="#061A40" text-anchor="start" letter-spacing="0">JB금융지주</text><text x="62" y="925" font-family="'JB Corporate','Noto Sans CJK KR','Pretendard','Arial',sans-serif" font-size="11" font-weight="800" fill="#061A40" text-anchor="start" letter-spacing="0">홍 길 동  |  AX 혁신본부</text><text x="62" y="943" font-family="'JB Corporate','Noto Sans CJK KR','Pretendard','Arial',sans-serif" font-size="8" font-weight="500" fill="#263B61" text-anchor="start" letter-spacing="0">010-1234-5678  |  honggd@jbfg.com</text>
<path d="M226 860 L245 860 L222 955 L203 955 Z" fill="url(#blueGrad)" opacity=".8"/>
<text x="280" y="835" font-family="'JB Corporate','Noto Sans CJK KR','Pretendard','Arial',sans-serif" font-size="13" font-weight="800" fill="#061A40" text-anchor="start" letter-spacing="0">문서 표지</text>
<rect x="280" y="860" width="210" height="125" fill="url(#navyDeep)" filter="url(#shadow)"/><g transform="translate(305,915) scale(0.24)"><text x="0" y="0" font-family="Arial Black, 'JB Corporate','Noto Sans CJK KR','Pretendard','Arial',sans-serif" font-size="120" font-weight="900" fill="#FFFFFF" letter-spacing="-5">JB</text><path d="M220 0 L270 -112 L320 0 L292 0 L270 -54 L246 0 Z" fill="#FFFFFF"/><path d="M274 -8 L360 -112" stroke="url(#blueGrad)" stroke-width="22" stroke-linecap="square"/><path d="M344 -112 L396 0" stroke="#FFFFFF" stroke-width="24" stroke-linecap="square"/><path d="M394 -112 L340 0" stroke="#FFFFFF" stroke-width="24" stroke-linecap="square" opacity=".95"/><path d="M348 -64 L392 -64" stroke="url(#cyanGrad)" stroke-width="14" stroke-linecap="round" opacity=".95"/></g><text x="305" y="945" font-family="'JB Corporate','Noto Sans CJK KR','Pretendard','Arial',sans-serif" font-size="15" font-weight="700" fill="white" text-anchor="start" letter-spacing="0">금융의 신뢰를,</text><text x="305" y="965" font-family="'JB Corporate','Noto Sans CJK KR','Pretendard','Arial',sans-serif" font-size="15" font-weight="700" fill="white" text-anchor="start" letter-spacing="0">AX의 속도로.</text><path d="M448 860 L490 860 L430 985 L388 985 Z" fill="url(#blueGrad)" opacity=".75"/>
<text x="530" y="835" font-family="'JB Corporate','Noto Sans CJK KR','Pretendard','Arial',sans-serif" font-size="13" font-weight="800" fill="#061A40" text-anchor="start" letter-spacing="0">프레젠테이션 표지</text>
<rect x="530" y="860" width="210" height="125" fill="url(#navyDeep)" filter="url(#shadow)"/><g transform="translate(555,915) scale(0.24)"><text x="0" y="0" font-family="Arial Black, 'JB Corporate','Noto Sans CJK KR','Pretendard','Arial',sans-serif" font-size="120" font-weight="900" fill="#FFFFFF" letter-spacing="-5">JB</text><path d="M220 0 L270 -112 L320 0 L292 0 L270 -54 L246 0 Z" fill="#FFFFFF"/><path d="M274 -8 L360 -112" stroke="url(#blueGrad)" stroke-width="22" stroke-linecap="square"/><path d="M344 -112 L396 0" stroke="#FFFFFF" stroke-width="24" stroke-linecap="square"/><path d="M394 -112 L340 0" stroke="#FFFFFF" stroke-width="24" stroke-linecap="square" opacity=".95"/><path d="M348 -64 L392 -64" stroke="url(#cyanGrad)" stroke-width="14" stroke-linecap="round" opacity=".95"/></g><text x="555" y="945" font-family="'JB Corporate','Noto Sans CJK KR','Pretendard','Arial',sans-serif" font-size="12" font-weight="700" fill="white" text-anchor="start" letter-spacing="0">AX로, 금융의 미래를 앞당기다</text><path d="M690 860 L740 860 L675 985 L625 985 Z" fill="url(#blueGrad)" opacity=".8"/>
<text x="785" y="835" font-family="'JB Corporate','Noto Sans CJK KR','Pretendard','Arial',sans-serif" font-size="13" font-weight="800" fill="#061A40" text-anchor="start" letter-spacing="0">배너</text>
<rect x="785" y="860" width="230" height="125" fill="url(#navyDeep)" filter="url(#shadow)"/><text x="807" y="914" font-family="'JB Corporate','Noto Sans CJK KR','Pretendard','Arial',sans-serif" font-size="18" font-weight="800" fill="white" text-anchor="start" letter-spacing="0">금융의 신뢰를,</text><text x="807" y="940" font-family="'JB Corporate','Noto Sans CJK KR','Pretendard','Arial',sans-serif" font-size="18" font-weight="800" fill="white" text-anchor="start" letter-spacing="0">AX의 속도로.</text><g transform="translate(925,965) scale(0.18)"><text x="0" y="0" font-family="Arial Black, 'JB Corporate','Noto Sans CJK KR','Pretendard','Arial',sans-serif" font-size="120" font-weight="900" fill="#FFFFFF" letter-spacing="-5">JB</text><path d="M220 0 L270 -112 L320 0 L292 0 L270 -54 L246 0 Z" fill="#FFFFFF"/><path d="M274 -8 L360 -112" stroke="url(#blueGrad)" stroke-width="22" stroke-linecap="square"/><path d="M344 -112 L396 0" stroke="#FFFFFF" stroke-width="24" stroke-linecap="square"/><path d="M394 -112 L340 0" stroke="#FFFFFF" stroke-width="24" stroke-linecap="square" opacity=".95"/><path d="M348 -64 L392 -64" stroke="url(#cyanGrad)" stroke-width="14" stroke-linecap="round" opacity=".95"/></g><path d="M965 860 L1015 860 L953 985 L905 985 Z" fill="url(#blueGrad)" opacity=".85"/>
<text x="1045" y="835" font-family="'JB Corporate','Noto Sans CJK KR','Pretendard','Arial',sans-serif" font-size="13" font-weight="800" fill="#061A40" text-anchor="start" letter-spacing="0">디지털 버튼 / 아이콘</text>
<rect x="1045" y="867" width="42" height="42" rx="9" fill="#061A40"/><text x="1066" y="894" font-family="Arial" font-size="20" fill="white" text-anchor="middle">⌘</text>
<rect x="1095" y="867" width="42" height="42" rx="9" fill="#155BFF"/><text x="1116" y="894" font-family="'JB Corporate','Noto Sans CJK KR','Pretendard','Arial',sans-serif" font-size="18" font-weight="800" fill="white" text-anchor="middle" letter-spacing="0">AI</text>
<rect x="1145" y="867" width="42" height="42" rx="9" fill="#00B8D9"/><text x="1166" y="894" font-family="Arial" font-size="18" fill="white" text-anchor="middle">☁</text>
<rect x="1195" y="867" width="42" height="42" rx="9" fill="#F6B23C"/><text x="1216" y="894" font-family="Arial" font-size="19" fill="white" text-anchor="middle">♙</text>

<!-- 07 Tagline -->
<text x="1060" y="785" font-family="'JB Corporate','Noto Sans CJK KR','Pretendard','Arial',sans-serif" font-size="18" font-weight="800" fill="#061A40" text-anchor="start" letter-spacing="0">07. 브랜드 태그라인</text>
<text x="1060" y="865" font-family="'JB Corporate','Noto Sans CJK KR','Pretendard','Arial',sans-serif" font-size="32" font-weight="900" fill="#061A40" text-anchor="start" letter-spacing="0">금융의 신뢰를,</text>
<text x="1060" y="908" font-family="'JB Corporate','Noto Sans CJK KR','Pretendard','Arial',sans-serif" font-size="32" font-weight="900" fill="#061A40" text-anchor="start" letter-spacing="0">AX의 속도로.</text>
<path d="M1060 940 H1105" stroke="#061A40" stroke-width="2"/>
<text x="1060" y="975.0" font-family="'JB Corporate','Noto Sans CJK KR','Pretendard','Arial',sans-serif" font-size="16" font-weight="500" fill="#142845" text-anchor="start" letter-spacing="0">JBAX는 신뢰를 지키며,</text><text x="1060" y="999.8" font-family="'JB Corporate','Noto Sans CJK KR','Pretendard','Arial',sans-serif" font-size="16" font-weight="500" fill="#142845" text-anchor="start" letter-spacing="0">변화를 가장 빠르게 실행합니다.</text>
<g opacity=".16" transform="translate(1240 845) scale(.9)"><path d="M0 150 L110 0 L220 150" fill="none" stroke="#B8CBE7" stroke-width="28"/><path d="M105 150 L220 0" stroke="#B8CBE7" stroke-width="28"/></g>
</svg>