<svg xmlns="http://www.w3.org/2000/svg" width="512" height="512" viewBox="0 0 512 512" role="img" aria-label="JBAX symbol">
  <defs>
    <linearGradient id="bg" x1="0" y1="0" x2="1" y2="1">
      <stop offset="0" stop-color="#071B48"/>
      <stop offset="1" stop-color="#020819"/>
    </linearGradient>
    <linearGradient id="ax" x1="0" y1="0" x2="1" y2="1">
      <stop offset="0" stop-color="#92F0FF"/>
      <stop offset="0.42" stop-color="#00B8D9"/>
      <stop offset="1" stop-color="#1565FF"/>
    </linearGradient>
    <linearGradient id="whiteFacet" x1="0" y1="0" x2="1" y2="1">
      <stop offset="0" stop-color="#FFFFFF"/>
      <stop offset="1" stop-color="#D7E4FF"/>
    </linearGradient>
    <filter id="shadow" x="-20%" y="-20%" width="140%" height="140%">
      <feDropShadow dx="0" dy="16" stdDeviation="18" flood-color="#061A40" flood-opacity="0.22"/>
    </filter>
  </defs>
  <rect x="56" y="56" width="400" height="400" rx="72" fill="url(#bg)" filter="url(#shadow)"/>
  <path d="M134 336 L234 176 L282 176 L184 336 Z" fill="url(#whiteFacet)"/>
  <path d="M274 176 L378 336 L327 336 L250 216 Z" fill="url(#whiteFacet)" opacity="0.92"/>
  <path d="M232 336 L319 204 L371 204 L284 336 Z" fill="url(#ax)" opacity="0.95"/>
  <path d="M323 176 L397 176 L349 230 Z" fill="url(#ax)" opacity="0.95"/>
  <path d="M85 72 L440 428" stroke="#2B66FF" stroke-width="2" opacity="0.17"/>
  <path d="M116 76 L454 414" stroke="#00D2E5" stroke-width="1.2" opacity="0.10"/>
</svg>